<?xml version="1.0" encoding="utf-8"?>
<!-- Uploaded to: SVG Repo, www.svgrepo.com, Generator: SVG Repo Mixer Tools -->
<svg width="800px" height="800px" viewBox="0 0 1024 1024" class="icon"  version="1.1" xmlns="http://www.w3.org/2000/svg"><path d="M984.576 465.408c-126.976 153.088-246.784 311.808-359.424 475.648-7.68 11.264-24.064 5.12-25.6-5.12-0.512-1.536-1.024-3.584-1.024-6.144 3.584-65.024 14.848-123.392 39.424-183.808 22.016-53.76 39.936-112.64 69.632-162.816 26.112-44.544 70.656-90.624 115.2-116.736 45.568-27.136 100.352-29.184 152.064-26.112 7.68 0.512 11.776 5.632 12.8 11.776 1.024 4.096 1.024 9.216-3.072 13.312z m-35.84 1.024c-44.544-0.512-88.576 5.12-125.44 32.256-39.424 29.184-79.36 70.144-101.376 114.176-24.576 49.152-43.008 102.4-63.488 153.6-15.872 39.936-24.576 79.36-29.184 120.832 100.864-144.384 207.872-284.672 319.488-420.864z" fill="#056137" /><path d="M823.296 498.688C860.16 471.552 904.704 465.92 948.736 466.432c-112.128 136.192-218.624 276.48-319.488 420.864 4.608-41.472 13.312-80.384 29.184-120.832 20.48-51.2 38.912-104.448 63.488-153.6 22.016-44.032 61.952-84.992 101.376-114.176z" fill="#3B9548" /><path d="M603.648 435.712c2.048 94.72-0.512 189.44-1.536 284.16-1.024 72.704 10.24 163.84-35.328 226.816-8.704 11.776-26.624 4.096-26.112-7.168-0.512-1.536-0.512-3.072-0.512-4.608 2.048-39.424-9.728-75.776-20.992-113.152-9.728-31.744-16.384-63.488-20.992-96.256-10.24-76.288-10.752-153.088-25.6-228.864-13.824-72.192-26.624-141.824-30.208-215.04-4.096-75.776-6.144-152.064-26.624-225.792-7.168-11.264 5.12-28.16 17.92-19.456 123.392 84.48 166.912 257.024 169.984 399.36z m-28.672 272.896c1.024-83.968 2.56-167.936 2.048-251.904-0.512-124.928-29.696-282.112-125.952-372.224 12.288 61.44 15.36 123.904 18.432 186.368 4.096 77.824 17.92 151.552 31.744 227.84 13.312 74.24 13.824 149.504 24.576 224.256 7.68 55.296 31.232 109.056 39.424 164.864 16.896-56.32 8.704-124.416 9.728-179.2z" fill="#056137" /><path d="M577.024 456.704c0.512 83.968-0.512 167.936-2.048 251.904-0.512 54.784 7.168 122.88-10.24 178.688-8.192-55.296-31.744-109.568-39.424-164.864-10.24-74.752-10.752-150.016-24.576-224.256-13.824-76.288-27.648-150.016-31.744-227.84-3.584-62.464-6.144-124.928-18.432-186.368 96.768 90.624 125.44 247.808 126.464 372.736z" fill="#3B9548" /><path d="M532.992 939.008c3.584 12.8-16.384 23.04-25.6 9.728-64.512-95.744-138.24-180.224-217.6-263.68-86.016-90.112-171.52-181.248-261.12-268.288-3.584-3.584-4.608-7.68-3.584-11.264-0.512-8.192 6.656-17.408 16.896-15.36 62.976 10.24 126.976 19.968 186.368 45.056 61.952 26.112 106.496 71.68 151.04 120.832 47.104 51.712 76.8 107.008 99.84 172.544 24.576 68.096 48.128 137.216 53.76 210.432z m-34.304-50.176c-9.728-52.736-27.648-103.424-45.568-153.6-23.04-64.512-52.224-117.248-99.328-167.424-45.056-48.128-88.576-91.136-152.064-114.176-41.472-15.36-84.992-23.552-129.024-31.232 82.944 81.92 162.816 166.4 242.688 250.368 66.56 69.632 128 139.776 183.296 216.064z" fill="#056137" /><path d="M453.12 735.232c17.92 50.176 35.84 101.376 45.568 153.6-55.808-76.288-117.248-146.432-182.784-216.064-79.872-84.48-160.256-168.96-242.688-250.368 43.52 7.168 87.04 15.872 129.024 31.232 62.976 23.04 107.008 66.048 152.064 114.176 46.592 50.176 76.288 102.912 98.816 167.424z" fill="#3B9548" /></svg>