<?xml version="1.0" encoding="UTF-8" standalone="no"?>
<!-- Created with Inkscape (http://www.inkscape.org/) -->

<svg
   xmlns:dc="http://purl.org/dc/elements/1.1/"
   xmlns:cc="http://creativecommons.org/ns#"
   xmlns:rdf="http://www.w3.org/1999/02/22-rdf-syntax-ns#"
   xmlns:svg="http://www.w3.org/2000/svg"
   xmlns="http://www.w3.org/2000/svg"
   xmlns:xlink="http://www.w3.org/1999/xlink"
   xmlns:sodipodi="http://sodipodi.sourceforge.net/DTD/sodipodi-0.dtd"
   xmlns:inkscape="http://www.inkscape.org/namespaces/inkscape"
   width="147.84592"
   height="366.91385"
   id="svg3254"
   version="1.1"
   inkscape:version="0.48.1 r9760"
   sodipodi:docname="New document 2">
  <sodipodi:namedview
     id="base"
     pagecolor="#ffffff"
     bordercolor="#666666"
     borderopacity="1.0"
     inkscape:pageopacity="0.0"
     inkscape:pageshadow="2"
     inkscape:zoom="0.42681536"
     inkscape:cx="321.9968"
     inkscape:cy="138.30198"
     inkscape:document-units="px"
     inkscape:current-layer="layer1"
     showgrid="false"
     inkscape:window-width="1230"
     inkscape:window-height="776"
     inkscape:window-x="50"
     inkscape:window-y="24"
     inkscape:window-maximized="1"
     fit-margin-top="0"
     fit-margin-left="0"
     fit-margin-right="0"
     fit-margin-bottom="0" />
  <defs
     id="defs3256">
    <linearGradient
       y2="796.87329"
       x2="370.01837"
       y1="583.67224"
       x1="368.25641"
       gradientTransform="matrix(0.35269199,0,0,0.44653878,-17.202636,44.481065)"
       gradientUnits="userSpaceOnUse"
       id="linearGradient6434"
       xlink:href="#linearGradient6005"
       inkscape:collect="always" />
    <linearGradient
       id="linearGradient6005"
       inkscape:collect="always">
      <stop
         id="stop6007"
         offset="0"
         style="stop-color:#808000;stop-opacity:1;" />
      <stop
         id="stop6009"
         offset="1"
         style="stop-color:#808000;stop-opacity:0;" />
    </linearGradient>
    <linearGradient
       y2="796.87329"
       x2="370.01837"
       y1="583.67224"
       x1="368.25641"
       gradientTransform="matrix(0.35269199,0,0,0.44653878,197.98559,112.28931)"
       gradientUnits="userSpaceOnUse"
       id="linearGradient3524"
       xlink:href="#linearGradient6005"
       inkscape:collect="always" />
    <linearGradient
       inkscape:collect="always"
       xlink:href="#linearGradient6005"
       id="linearGradient5300"
       gradientUnits="userSpaceOnUse"
       gradientTransform="matrix(0.35269199,0,0,0.44653878,197.98559,112.28931)"
       x1="368.25641"
       y1="583.67224"
       x2="370.01837"
       y2="796.87329" />
  </defs>
  <metadata
     id="metadata3259">
    <rdf:RDF>
      <cc:Work
         rdf:about="">
        <dc:format>image/svg+xml</dc:format>
        <dc:type
           rdf:resource="http://purl.org/dc/dcmitype/StillImage" />
        <dc:title></dc:title>
      </cc:Work>
    </rdf:RDF>
  </metadata>
  <g
     id="layer1"
     inkscape:groupmode="layer"
     inkscape:label="Layer 1"
     transform="translate(-34.47071,-41.394443)">
    <g
       id="g5230"
       transform="translate(-194.46348,-60.916271)">
      <g
         transform="matrix(0.35715638,0.13638133,-0.13638133,0.35715638,284.55726,223.05117)"
         id="g5193">
        <path
           sodipodi:type="arc"
           style="opacity:0.98999999;fill:#808000;fill-opacity:1;stroke:none"
           id="path4323"
           sodipodi:cx="113.68043"
           sodipodi:cy="111.25612"
           sodipodi:rx="6.8666029"
           sodipodi:ry="59.129082"
           d="m 120.54703,111.25612 c 0,32.65609 -3.07428,59.12908 -6.8666,59.12908 -3.79232,0 -6.86661,-26.47299 -6.86661,-59.12908 0,-32.656091 3.07429,-59.129083 6.86661,-59.129083 3.79232,0 6.8666,26.472992 6.8666,59.129083 z"
           transform="matrix(1.7222222,0,0,1,-81.721053,0)" />
        <path
           sodipodi:nodetypes="sssss"
           inkscape:connector-curvature="0"
           id="path4328"
           d="m 98.597578,117.35977 c 0,32.65609 11.045422,54.55134 15.259112,54.55134 4.21369,0 11.58747,-17.49306 3.81479,-49.21065 -8.00267,-32.656093 -15.23728,-49.973614 -18.310952,-49.973614 -4.213691,0 -0.76295,11.97683 -0.76295,44.632924 z"
           style="fill:#005500;fill-opacity:1;stroke:none" />
        <path
           style="fill:#005500;fill-opacity:1;stroke:none"
           d="m 131.1943,116.59681 c 0,32.65609 -11.04542,54.55134 -15.25911,54.55134 -4.21369,0 -11.58748,-17.49306 -3.81479,-49.21065 8.00267,-32.656089 15.23728,-49.97361 18.31095,-49.97361 4.21369,0 0.76295,11.97683 0.76295,44.63292 z"
           id="path5098"
           inkscape:connector-curvature="0"
           sodipodi:nodetypes="sssss" />
        <path
           style="fill:none;stroke:#808000;stroke-width:2;stroke-linecap:round;stroke-linejoin:round;stroke-miterlimit:4;stroke-opacity:1;stroke-dasharray:none"
           d="m 113.5387,58.566447 c 0.26533,-1.320963 0.31382,-6.207689 0.41409,-7.523786 3.07666,-40.374538 43.00113,-26.32333 43.26032,22.401901"
           id="path5104"
           inkscape:connector-curvature="0"
           sodipodi:nodetypes="ccc" />
        <path
           sodipodi:nodetypes="ccc"
           inkscape:connector-curvature="0"
           id="path5158"
           d="m 112.29617,63.53656 c 0.24762,-1.320963 0.29287,-6.207689 0.38645,-7.523786 2.87132,-40.374538 40.13112,-26.32333 40.37301,22.401901"
           style="fill:none;stroke:#808000;stroke-width:1.93210483;stroke-linecap:round;stroke-linejoin:round;stroke-miterlimit:4;stroke-opacity:1;stroke-dasharray:none" />
        <path
           style="fill:none;stroke:#808000;stroke-width:1.77548504;stroke-linecap:round;stroke-linejoin:round;stroke-miterlimit:4;stroke-opacity:1;stroke-dasharray:none"
           d="m 112.29617,63.53656 c 0.2091,-1.320963 0.24731,-6.207689 0.32634,-7.523786 2.42468,-40.374538 33.88862,-26.32333 34.09289,22.401901"
           id="path5179"
           inkscape:connector-curvature="0"
           sodipodi:nodetypes="ccc" />
        <path
           sodipodi:nodetypes="ccc"
           inkscape:connector-curvature="0"
           id="path5181"
           d="m 112.29617,63.53656 c 0.1628,-1.320963 0.19256,-6.207689 0.25409,-7.523786 1.88785,-40.374538 26.38564,-26.32333 26.54468,22.401901"
           style="fill:none;stroke:#808000;stroke-width:1.56665683;stroke-linecap:round;stroke-linejoin:round;stroke-miterlimit:4;stroke-opacity:1;stroke-dasharray:none" />
        <path
           style="fill:none;stroke:#808000;stroke-width:1.44815612;stroke-linecap:round;stroke-linejoin:round;stroke-miterlimit:4;stroke-opacity:1;stroke-dasharray:none"
           d="m 112.29617,63.53656 c 0.1391,-1.320963 0.16453,-6.207689 0.21711,-7.523786 1.61306,-40.374538 22.54502,-26.32333 22.68091,22.401901"
           id="path5183"
           inkscape:connector-curvature="0"
           sodipodi:nodetypes="ccc" />
        <path
           sodipodi:nodetypes="ccc"
           inkscape:connector-curvature="0"
           id="path5187"
           d="m 113.5387,58.566447 c 0.31055,-1.320963 0.36731,-6.207689 0.48467,-7.523786 3.60106,-40.374538 50.33047,-26.32333 50.63384,22.401901"
           style="fill:none;stroke:#808000;stroke-width:2.1637423;stroke-linecap:round;stroke-linejoin:round;stroke-miterlimit:4;stroke-opacity:1;stroke-dasharray:none" />
        <path
           style="fill:none;stroke:#808000;stroke-width:2.28123331;stroke-linecap:round;stroke-linejoin:round;stroke-miterlimit:4;stroke-opacity:1;stroke-dasharray:none"
           d="m 113.5387,58.566447 c 0.34519,-1.320963 0.40828,-6.207689 0.53873,-7.523786 4.00276,-40.374538 55.94475,-26.32333 56.28196,22.401901"
           id="path5189"
           inkscape:connector-curvature="0"
           sodipodi:nodetypes="ccc" />
        <path
           sodipodi:nodetypes="ccc"
           inkscape:connector-curvature="0"
           id="path5191"
           d="m 113.46382,59.238373 c 0.25114,-1.194409 0.29704,-5.612962 0.39195,-6.80297 2.91215,-36.506457 40.70183,-23.801425 40.94716,20.255686"
           style="fill:none;stroke:#808000;stroke-width:1.85024011;stroke-linecap:round;stroke-linejoin:round;stroke-miterlimit:4;stroke-opacity:1;stroke-dasharray:none" />
      </g>
      <g
         id="g5206"
         transform="matrix(-0.25425357,0.04065136,0.04065136,0.25425357,318.28819,174.47269)">
        <path
           transform="matrix(1.7222222,0,0,1,-81.721053,0)"
           d="m 120.54703,111.25612 c 0,32.65609 -3.07428,59.12908 -6.8666,59.12908 -3.79232,0 -6.86661,-26.47299 -6.86661,-59.12908 0,-32.656091 3.07429,-59.129083 6.86661,-59.129083 3.79232,0 6.8666,26.472992 6.8666,59.129083 z"
           sodipodi:ry="59.129082"
           sodipodi:rx="6.8666029"
           sodipodi:cy="111.25612"
           sodipodi:cx="113.68043"
           id="path5208"
           style="opacity:0.98999999;fill:#808000;fill-opacity:1;stroke:none"
           sodipodi:type="arc" />
        <path
           style="fill:#005500;fill-opacity:1;stroke:none"
           d="m 98.597578,117.35977 c 0,32.65609 11.045422,54.55134 15.259112,54.55134 4.21369,0 11.58747,-17.49306 3.81479,-49.21065 -8.00267,-32.656093 -15.23728,-49.973614 -18.310952,-49.973614 -4.213691,0 -0.76295,11.97683 -0.76295,44.632924 z"
           id="path5210"
           inkscape:connector-curvature="0"
           sodipodi:nodetypes="sssss" />
        <path
           sodipodi:nodetypes="sssss"
           inkscape:connector-curvature="0"
           id="path5212"
           d="m 131.1943,116.59681 c 0,32.65609 -11.04542,54.55134 -15.25911,54.55134 -4.21369,0 -11.58748,-17.49306 -3.81479,-49.21065 8.00267,-32.656089 15.23728,-49.97361 18.31095,-49.97361 4.21369,0 0.76295,11.97683 0.76295,44.63292 z"
           style="fill:#005500;fill-opacity:1;stroke:none" />
        <path
           sodipodi:nodetypes="ccc"
           inkscape:connector-curvature="0"
           id="path5214"
           d="m 113.5387,58.566447 c 0.26533,-1.320963 0.31382,-6.207689 0.41409,-7.523786 3.07666,-40.374538 43.00113,-26.32333 43.26032,22.401901"
           style="fill:none;stroke:#808000;stroke-width:2;stroke-linecap:round;stroke-linejoin:round;stroke-miterlimit:4;stroke-opacity:1;stroke-dasharray:none" />
        <path
           style="fill:none;stroke:#808000;stroke-width:1.93210483;stroke-linecap:round;stroke-linejoin:round;stroke-miterlimit:4;stroke-opacity:1;stroke-dasharray:none"
           d="m 112.29617,63.53656 c 0.24762,-1.320963 0.29287,-6.207689 0.38645,-7.523786 2.87132,-40.374538 40.13112,-26.32333 40.37301,22.401901"
           id="path5216"
           inkscape:connector-curvature="0"
           sodipodi:nodetypes="ccc" />
        <path
           sodipodi:nodetypes="ccc"
           inkscape:connector-curvature="0"
           id="path5218"
           d="m 112.29617,63.53656 c 0.2091,-1.320963 0.24731,-6.207689 0.32634,-7.523786 2.42468,-40.374538 33.88862,-26.32333 34.09289,22.401901"
           style="fill:none;stroke:#808000;stroke-width:1.77548504;stroke-linecap:round;stroke-linejoin:round;stroke-miterlimit:4;stroke-opacity:1;stroke-dasharray:none" />
        <path
           style="fill:none;stroke:#808000;stroke-width:1.56665683;stroke-linecap:round;stroke-linejoin:round;stroke-miterlimit:4;stroke-opacity:1;stroke-dasharray:none"
           d="m 112.29617,63.53656 c 0.1628,-1.320963 0.19256,-6.207689 0.25409,-7.523786 1.88785,-40.374538 26.38564,-26.32333 26.54468,22.401901"
           id="path5220"
           inkscape:connector-curvature="0"
           sodipodi:nodetypes="ccc" />
        <path
           sodipodi:nodetypes="ccc"
           inkscape:connector-curvature="0"
           id="path5222"
           d="m 112.29617,63.53656 c 0.1391,-1.320963 0.16453,-6.207689 0.21711,-7.523786 1.61306,-40.374538 22.54502,-26.32333 22.68091,22.401901"
           style="fill:none;stroke:#808000;stroke-width:1.44815612;stroke-linecap:round;stroke-linejoin:round;stroke-miterlimit:4;stroke-opacity:1;stroke-dasharray:none" />
        <path
           style="fill:none;stroke:#808000;stroke-width:2.1637423;stroke-linecap:round;stroke-linejoin:round;stroke-miterlimit:4;stroke-opacity:1;stroke-dasharray:none"
           d="m 113.5387,58.566447 c 0.31055,-1.320963 0.36731,-6.207689 0.48467,-7.523786 3.60106,-40.374538 50.33047,-26.32333 50.63384,22.401901"
           id="path5224"
           inkscape:connector-curvature="0"
           sodipodi:nodetypes="ccc" />
        <path
           sodipodi:nodetypes="ccc"
           inkscape:connector-curvature="0"
           id="path5226"
           d="m 113.5387,58.566447 c 0.34519,-1.320963 0.40828,-6.207689 0.53873,-7.523786 4.00276,-40.374538 55.94475,-26.32333 56.28196,22.401901"
           style="fill:none;stroke:#808000;stroke-width:2.28123331;stroke-linecap:round;stroke-linejoin:round;stroke-miterlimit:4;stroke-opacity:1;stroke-dasharray:none" />
        <path
           style="fill:none;stroke:#808000;stroke-width:1.85024011;stroke-linecap:round;stroke-linejoin:round;stroke-miterlimit:4;stroke-opacity:1;stroke-dasharray:none"
           d="m 113.46382,59.238373 c 0.25114,-1.194409 0.29704,-5.612962 0.39195,-6.80297 2.91215,-36.506457 40.70183,-23.801425 40.94716,20.255686"
           id="path5228"
           inkscape:connector-curvature="0"
           sodipodi:nodetypes="ccc" />
      </g>
      <path
         style="fill:#008000;fill-opacity:1;stroke:none"
         d="m 299.10761,156.9086 0.8064,-10.78546 1.15392,90.84098 0.42579,15.47092 0.15766,86.71478 -0.25679,13.84658 -0.32666,41.66714 -4.67001,0 -1.27735,-79.12345 0.9016,-16.28114 z"
         id="rect4721"
         inkscape:connector-curvature="0"
         sodipodi:nodetypes="ccccccccccc" />
      <path
         style="fill:#008000;fill-opacity:1;stroke:none"
         d="m 296.95119,303.46499 c 26.98441,-31.04372 63.63297,-68.38466 79.82892,-14.76386 -13.49541,-56.28426 -30.81056,-31.4278 -76.69406,26.047 z"
         id="rect4718"
         inkscape:connector-curvature="0"
         sodipodi:nodetypes="cccc" />
      <path
         sodipodi:nodetypes="cccc"
         inkscape:connector-curvature="0"
         id="path4723"
         d="m 300.39396,223.88065 c -19.77546,-31.04372 -37.23091,-60.79839 -52.67479,-22.01968 15.45792,-27.40225 16.2685,-35.18622 50.37742,27.1838 z"
         style="fill:#008000;fill-opacity:1;stroke:none" />
      <path
         style="fill:#008000;fill-opacity:1;stroke:none"
         d="m 298.94124,185.88664 c 14.29666,-21.42807 26.21727,-60.97293 49.96092,-40.54128 -20.60918,-10.46715 -25.44031,2.53826 -48.78333,45.27001 z"
         id="path4725"
         inkscape:connector-curvature="0"
         sodipodi:nodetypes="cccc" />
      <path
         sodipodi:nodetypes="cccc"
         inkscape:connector-curvature="0"
         id="path4727"
         d="m 299.69758,172.29169 c -10.25966,-16.87328 -18.81419,-48.01242 -35.85325,-31.92376 14.78968,-8.24224 17.73936,4.47973 35.18457,35.71918 z"
         style="fill:#008000;fill-opacity:1;stroke:none" />
      <path
         sodipodi:nodetypes="cccc"
         inkscape:connector-curvature="0"
         id="path5431"
         d="m 299.14936,337.56551 c -61.42818,-54.50431 -55.47073,0.48665 -70.21517,31.01047 6.88578,-41.04753 16.40027,-87.32355 67.08031,-19.72733 z"
         style="fill:#008000;fill-opacity:1;stroke:none" />
      <path
         style="fill:#008000;fill-opacity:1;stroke:none"
         d="m 299.49377,155.6014 c 10.19137,-18.06778 24.12916,-53.96319 30.15147,-31.49329 -6.88975,-15.52161 -12.28397,2.23318 -30.24303,35.98701 z"
         id="path5491"
         inkscape:connector-curvature="0"
         sodipodi:nodetypes="cccc" />
      <path
         sodipodi:nodetypes="cccc"
         inkscape:connector-curvature="0"
         id="path5934"
         d="M 300.80711,269.37287 C 279.37727,238.32914 245.92287,200.9882 237.41047,254.609 c 10.71746,-56.28426 26.40161,-22.24926 59.45717,18.70418 z"
         style="fill:#008000;fill-opacity:1;stroke:none" />
      <path
         style="fill:#008000;fill-opacity:1;stroke:none"
         d="m 296.95119,244.72236 c 21.42984,-31.04372 54.88425,-68.38466 63.39665,-14.76386 -10.71746,-56.28426 -26.40161,-22.24927 -59.45717,18.70417 z"
         id="path5936"
         inkscape:connector-curvature="0"
         sodipodi:nodetypes="cccc" />
      <g
         id="g5986"
         style="stroke:#808000;stroke-width:3.70190406;stroke-miterlimit:4;stroke-dasharray:none"
         transform="matrix(0.30707067,0,0,0.33682833,212.73885,177.33404)">
        <path
           sodipodi:nodetypes="caac"
           inkscape:connector-curvature="0"
           id="path5955"
           d="m 280.44217,634.36169 c -11.12349,12.16148 -16.56408,24.61133 -19.72021,38.75949 -4.36506,19.56752 5.27312,40.35168 1.90529,60.11527 -4.67707,27.44664 -29.17452,59.24944 -30.14639,77.89693"
           style="fill:none;stroke:#808000;stroke-width:3.70190406;stroke-linecap:round;stroke-linejoin:round;stroke-miterlimit:4;stroke-opacity:1;stroke-dasharray:none" />
        <path
           style="fill:none;stroke:#808000;stroke-width:3.70190406;stroke-linecap:round;stroke-linejoin:round;stroke-miterlimit:4;stroke-opacity:1;stroke-dasharray:none"
           d="m 281.54753,633.86448 c -10.18035,12.96126 -14.67217,25.78399 -16.75863,40.12896 -2.88565,19.83972 8.28374,39.84274 6.4072,59.80321 -2.60603,27.72005 -24.65004,61.27009 -24.22104,79.93796"
           id="path5960"
           inkscape:connector-curvature="0"
           sodipodi:nodetypes="caac" />
        <path
           sodipodi:nodetypes="caac"
           inkscape:connector-curvature="0"
           id="path5962"
           d="m 281.70104,635.33865 c 10.18035,12.96126 14.67217,25.78399 16.75863,40.12896 2.88565,19.83972 -8.28374,39.84274 -6.4072,59.80321 2.60603,27.72005 24.65004,61.27009 24.22104,79.93796"
           style="fill:none;stroke:#808000;stroke-width:3.70190406;stroke-linecap:round;stroke-linejoin:round;stroke-miterlimit:4;stroke-opacity:1;stroke-dasharray:none" />
        <path
           style="fill:none;stroke:#808000;stroke-width:3.70190406;stroke-linecap:round;stroke-linejoin:round;stroke-miterlimit:4;stroke-opacity:1;stroke-dasharray:none"
           d="m 281.34786,634.16331 c 12.16341,11.12139 18.69225,23.03664 23.09714,36.84708 6.09213,19.10046 -1.65475,40.66112 3.46162,60.04576 7.10534,26.92038 34.34049,56.41259 36.97093,74.89918"
           id="path5964"
           inkscape:connector-curvature="0"
           sodipodi:nodetypes="caac" />
        <g
           transform="matrix(0.9752581,-0.22106931,0.22106931,0.9752581,-131.59923,78.142161)"
           id="g5970"
           style="stroke:#808000;stroke-width:3.70190406;stroke-miterlimit:4;stroke-dasharray:none">
          <path
             sodipodi:nodetypes="caac"
             inkscape:connector-curvature="0"
             id="path5966"
             d="m 281.70104,635.33865 c 10.18035,12.96126 14.67217,25.78399 16.75863,40.12896 2.88565,19.83972 -8.28374,39.84274 -6.4072,59.80321 2.60603,27.72005 24.65004,61.27009 24.22104,79.93796"
             style="fill:none;stroke:#808000;stroke-width:3.70190406;stroke-linecap:round;stroke-linejoin:round;stroke-miterlimit:4;stroke-opacity:1;stroke-dasharray:none" />
          <path
             style="fill:none;stroke:#808000;stroke-width:3.70190406;stroke-linecap:round;stroke-linejoin:round;stroke-miterlimit:4;stroke-opacity:1;stroke-dasharray:none"
             d="m 281.34786,634.16331 c 12.16341,11.12139 18.69225,23.03664 23.09714,36.84708 6.09213,19.10046 -1.65475,40.66112 3.46162,60.04576 7.10534,26.92038 34.34049,56.41259 36.97093,74.89918"
             id="path5968"
             inkscape:connector-curvature="0"
             sodipodi:nodetypes="caac" />
        </g>
        <g
           id="g5974"
           transform="matrix(-0.9752581,-0.22106931,-0.22106931,0.9752581,694.1483,77.193996)"
           style="stroke:#808000;stroke-width:3.70190406;stroke-miterlimit:4;stroke-dasharray:none">
          <path
             style="fill:none;stroke:#808000;stroke-width:3.70190406;stroke-linecap:round;stroke-linejoin:round;stroke-miterlimit:4;stroke-opacity:1;stroke-dasharray:none"
             d="m 281.70104,635.33865 c 10.18035,12.96126 14.67217,25.78399 16.75863,40.12896 2.88565,19.83972 -8.28374,39.84274 -6.4072,59.80321 2.60603,27.72005 24.65004,61.27009 24.22104,79.93796"
             id="path5976"
             inkscape:connector-curvature="0"
             sodipodi:nodetypes="caac" />
          <path
             sodipodi:nodetypes="caac"
             inkscape:connector-curvature="0"
             id="path5978"
             d="m 281.34786,634.16331 c 12.16341,11.12139 18.69225,23.03664 23.09714,36.84708 6.09213,19.10046 -1.65475,40.66112 3.46162,60.04576 7.10534,26.92038 34.34049,56.41259 36.97093,74.89918"
             style="fill:none;stroke:#808000;stroke-width:3.70190406;stroke-linecap:round;stroke-linejoin:round;stroke-miterlimit:4;stroke-opacity:1;stroke-dasharray:none" />
        </g>
        <path
           style="fill:none;stroke:#808000;stroke-width:3.70190406;stroke-linecap:round;stroke-linejoin:round;stroke-miterlimit:4;stroke-opacity:1;stroke-dasharray:none"
           d="m 279.33063,632.96824 c 6.82193,12.96126 9.83193,25.78399 11.23008,40.12896 1.9337,19.83972 -5.55099,39.84274 -4.29351,59.80321 1.74632,27.72005 16.51818,61.27009 16.2307,79.93796"
           id="path5980"
           inkscape:connector-curvature="0"
           sodipodi:nodetypes="caac" />
        <path
           sodipodi:nodetypes="caac"
           inkscape:connector-curvature="0"
           id="path5982"
           d="m 279.33063,634.39049 c 3.16974,12.96126 4.5683,25.78399 5.21794,40.12896 0.89847,19.83972 -2.57921,39.84274 -1.99494,59.80321 0.81141,27.72005 7.675,61.27009 7.54143,79.93796"
           style="fill:none;stroke:#808000;stroke-width:3.70190406;stroke-linecap:round;stroke-linejoin:round;stroke-miterlimit:4;stroke-opacity:1;stroke-dasharray:none" />
        <path
           sodipodi:nodetypes="caac"
           inkscape:connector-curvature="0"
           id="path5984"
           d="m 281.54753,633.86448 c -4.72997,12.96126 -6.81695,25.78399 -7.78635,40.12896 -1.34073,19.83972 3.84877,39.84274 2.97689,59.80321 -1.2108,27.72005 -11.45283,61.27009 -11.25351,79.93796"
           style="fill:none;stroke:#808000;stroke-width:3.70190406;stroke-linecap:round;stroke-linejoin:round;stroke-miterlimit:4;stroke-opacity:1;stroke-dasharray:none" />
      </g>
      <rect
         style="fill:#808000;fill-opacity:1;stroke:#808000;stroke-width:0.99096751;stroke-linecap:round;stroke-linejoin:round;stroke-miterlimit:4;stroke-opacity:1;stroke-dasharray:none"
         id="rect6001"
         width="109.35603"
         height="3.3871369"
         x="245.66246"
         y="390.83658" />
      <rect
         y="390.83658"
         x="245.66246"
         height="78.38797"
         width="109.35603"
         id="rect6003"
         style="fill:url(#linearGradient5300);fill-opacity:1;stroke:none" />
      <g
         transform="matrix(1.5529169,0,0,1.6543167,-25.916175,-38.211359)"
         id="g4303">
        <g
           id="g4269"
           transform="matrix(0.39341851,0,0,0.7584464,127.23762,20.481027)">
          <path
             style="fill:none;stroke:#808000;stroke-width:0.22803727;stroke-linecap:butt;stroke-linejoin:miter;stroke-miterlimit:4;stroke-opacity:1;stroke-dasharray:none"
             d="m 209.87581,126.32793 c 0.14449,-1.65878 0.17095,-7.79521 0.22558,-9.44788 1.67594,-50.699708 21.8446,-32.014928 24.46753,-4.11506"
             id="path4729"
             inkscape:connector-curvature="0" />
          <path
             inkscape:connector-curvature="0"
             style="fill:#89a02c;fill-opacity:1;stroke:none"
             d="m 210.47204,124.47526 c 0.36232,-0.53122 0.67905,-0.67691 0.7074,-0.32539 0.0284,0.35152 -0.26058,1.06643 -0.63601,1.59715 -0.37543,0.53073 -0.69574,0.67628 -0.71543,0.32508 -0.0197,-0.35118 0.2817,-1.06562 0.64404,-1.59684 0,0 0,0 0,0 m 0.0547,-2.62678 c 0.36232,-0.53122 0.6769,-0.67694 0.70669,-0.32539 0.0298,0.35154 -0.24168,1.06713 -0.604,1.59835 -0.36233,0.53122 -0.67904,0.67691 -0.70741,0.32538 -0.0284,-0.35151 0.24238,-1.06711 0.60472,-1.59834 0,0 0,0 0,0 m 0.0446,-2.62694 c 0.36016,-0.53125 0.67629,-0.67695 0.70608,-0.3254 0.0298,0.35154 -0.23804,1.06719 -0.5982,1.59845 -0.36016,0.53125 -0.67628,0.67695 -0.70608,0.3254 -0.0298,-0.35154 0.23803,-1.06719 0.5982,-1.59845 0,0 0,0 0,0 m 0.0552,-2.62659 c 0.37577,-0.53076 0.69618,-0.67632 0.71565,-0.3251 0.0195,0.35121 -0.25879,1.06653 -0.61895,1.59779 -0.36016,0.53125 -0.67628,0.67695 -0.70608,0.3254 -0.0298,-0.35154 0.2336,-1.06733 0.60938,-1.59809 0,0 0,0 0,0 m 0.1212,-2.62448 c 0.37577,-0.53076 0.69618,-0.67632 0.71565,-0.3251 0.0195,0.35121 -0.2694,1.06619 -0.64517,1.59695 -0.37577,0.53075 -0.69618,0.67631 -0.71565,0.32509 -0.0195,-0.35121 0.26939,-1.06618 0.64517,-1.59694 0,0 0,0 0,0 m 0.15218,-2.6226 c 0.39103,-0.52982 0.71563,-0.67513 0.72499,-0.32453 0.009,0.3506 -0.30972,1.06373 -0.68549,1.59449 -0.37577,0.53076 -0.69618,0.67632 -0.71565,0.3251 -0.0195,-0.35121 0.28512,-1.06523 0.67615,-1.59506 0,0 0,0 0,0 m 0.19665,-2.61988 c 0.39103,-0.52983 0.71563,-0.67514 0.72499,-0.32454 0.009,0.3506 -0.30005,1.06433 -0.69108,1.59416 -0.39102,0.52982 -0.71561,0.67513 -0.72498,0.32452 -0.009,-0.35059 0.30003,-1.06431 0.69107,-1.59414 0,0 0,0 0,0 m 0.26696,-2.61343 c 0.40828,-0.52825 0.73761,-0.67312 0.73556,-0.32357 -0.002,0.34955 -0.33471,1.06114 -0.74298,1.58939 -0.40828,0.52824 -0.7376,0.67311 -0.73556,0.32355 0.002,-0.34954 0.33469,-1.06113 0.74298,-1.58937 0,0 0,0 0,0 m 0.31894,-2.60735 c 0.42795,-0.52574 0.76267,-0.66992 0.7476,-0.32203 -0.015,0.34789 -0.38374,1.0549 -0.79202,1.58314 -0.40828,0.52825 -0.73759,0.67312 -0.73555,0.32356 0.002,-0.34954 0.35201,-1.05893 0.77997,-1.58467 0,0 0,0 0,0 m 0.3874,-2.59829 c 0.45057,-0.52193 0.7915,-0.66507 0.76146,-0.3197 -0.03,0.34538 -0.39626,1.0524 -0.82421,1.57814 -0.42795,0.52574 -0.76266,0.66993 -0.7476,0.32202 0.015,-0.34788 0.35977,-1.05853 0.81035,-1.58046 0,0 0,0 0,0 m 0.49109,-2.580816 c 0.45057,-0.521927 0.81159,-0.660698 0.76417,-0.319105 -0.0474,0.341593 -0.42237,1.047862 -0.87295,1.569789 -0.45057,0.521922 -0.79149,0.665062 -0.76146,0.319684 0.03,-0.345361 0.41965,-1.048441 0.87024,-1.570368 0,0 0,0 0,0 m 0.6076,-2.555488 c 0.47684,-0.516217 0.82497,-0.657789 0.77755,-0.316197 -0.0474,0.341593 -0.47243,1.036981 -0.94927,1.553198 -0.47685,0.516217 -0.82497,0.657789 -0.77755,0.316187 0.0474,-0.341583 0.47242,-1.036971 0.94927,-1.553188 0,0 0,0 0,0 m 0.74961,-2.517036 c 0.50761,-0.507715 0.88661,-0.639447 0.80113,-0.309406 -0.0855,0.330042 -0.53897,1.018318 -1.04658,1.526033 -0.50761,0.507715 -0.86417,0.646956 -0.7964,0.31098 0.0678,-0.335958 0.53423,-1.019892 1.04185,-1.527607 0,0 0,0 0,0 m 0.95077,-2.44744 c 0.5756,-0.481603 0.95082,-0.613683 0.83804,-0.294995 -0.11275,0.318688 -0.65026,0.976485 -1.20437,1.467537 -0.55411,0.491053 -0.89851,0.635451 -0.81303,0.3054 0.0855,-0.330032 0.60375,-0.996338 1.17936,-1.477942 0,0 0,0 0,0 m 1.24413,-2.31055 c 0.65158,-0.438212 1.04763,-0.558391 0.88458,-0.268417 -0.16303,0.289975 -0.80201,0.894902 -1.40098,1.364904 -0.59896,0.470002 -0.98057,0.5989 -0.85235,0.28788 0.12821,-0.311002 0.71715,-0.946156 1.36875,-1.384367 0,0 0,0 0,0 m 1.69187,-1.997907 c 0.74319,-0.358503 1.19648,-0.418185 0.95179,-0.20625 -0.24467,0.211936 -1.0314,0.69792 -1.71215,1.114618 -0.68075,0.416697 -1.08479,0.530976 -0.90244,0.25523 0.18232,-0.27573 0.9196,-0.805095 1.6628,-1.163598 0,0 0,0 0,0 m 2.29985,-1.203383 c 0.87196,-0.104144 1.3345,-0.08873 1.01981,-0.06206 -0.31467,0.02667 -1.25023,0.268982 -2.08318,0.49257 -0.83295,0.223589 -1.24493,0.348417 -0.98008,0.166251 0.26483,-0.182155 1.17148,-0.492613 2.04345,-0.596757 0,0 0,0 0,0 m 2.57881,0.221388 c 0.84762,0.189038 1.29744,0.240882 1.00466,0.115791 -0.29275,-0.125091 -1.23329,-0.330649 -2.10904,-0.413972 -0.87575,-0.08332 -1.34091,-0.02997 -1.02552,-0.01477 0.31536,0.0152 1.28227,0.12391 2.1299,0.312948 0,0 0,0 0,0 m 2.24543,1.337091 c 0.76549,0.332622 1.17469,0.445072 0.94995,0.20891 -0.22472,-0.236161 -1.04563,-0.679316 -1.85356,-0.950673 -0.80793,-0.271357 -1.24685,-0.345776 -0.98034,-0.166208 0.26647,0.179558 1.11844,0.57535 1.88395,0.907971 0,0 0,0 0,0 m 1.84187,1.866263 c 0.67884,0.418151 1.08237,0.532829 0.90128,0.256129 -0.18107,-0.276701 -0.89467,-0.827266 -1.61953,-1.205002 -0.72485,-0.377736 -1.14099,-0.48133 -0.92946,-0.231366 0.21151,0.24995 0.96885,0.762088 1.64771,1.180239 0,0 0,0 0,0 m 1.54233,2.123867 c 0.6461,0.441904 1.04064,0.563096 0.88123,0.270678 -0.1594,-0.292418 -0.78066,-0.910735 -1.45951,-1.328886 -0.67884,-0.418152 -1.08236,-0.53283 -0.90127,-0.256122 0.18106,0.276693 0.83345,0.872427 1.47955,1.31433 0,0 0,0 0,0 m 1.32242,2.268066 c 0.58929,0.474969 0.96826,0.605229 0.84643,0.290931 -0.12181,-0.314298 -0.7209,-0.941948 -1.33733,-1.402297 -0.61642,-0.460349 -1.00282,-0.586599 -0.86304,-0.281967 0.13976,0.304614 0.76465,0.918364 1.35394,1.393333 0,0 0,0 0,0 m 1.13156,2.369938 c 0.56414,0.486769 0.93621,0.620266 0.83103,0.298159 -0.10517,-0.322107 -0.63748,-0.982671 -1.22677,-1.457639 -0.58928,-0.474969 -0.96824,-0.605229 -0.84642,-0.290922 0.1218,0.314288 0.67801,0.963632 1.24216,1.450402 0,0 0,0 0,0 m 0.9854,2.434502 c 0.54052,0.496439 0.90611,0.632587 0.81655,0.304082 -0.0895,-0.328505 -0.60035,-0.99725 -1.14087,-1.493689 -0.54052,-0.496438 -0.92555,-0.624629 -0.82036,-0.302514 0.10516,0.322098 0.60414,0.995682 1.14468,1.492121 0,0 0,0 0,0 m 0.85259,2.484414 c 0.51802,0.50445 0.86203,0.64753 0.80174,0.30931 -0.0603,-0.33822 -0.55411,-1.013657 -1.07213,-1.518105 -0.51802,-0.504448 -0.87744,-0.642793 -0.80277,-0.308979 0.0746,0.333796 0.55513,1.013331 1.07316,1.517774 0,0 0,0 0,0 m 0.72941,2.52363 c 0.49629,0.51112 0.82358,0.65815 0.77736,0.31624 -0.0462,-0.3419 -0.49939,-1.02991 -0.99568,-1.54104 -0.49629,-0.51112 -0.84974,-0.6513 -0.78946,-0.31306 0.0603,0.33821 0.51148,1.02673 1.00778,1.53786 0,0 0,0 0,0 m 0.60586,2.5562 c 0.454,0.52128 0.79586,0.66424 0.76356,0.31929 -0.0323,-0.34494 -0.44883,-1.04227 -0.92386,-1.55896 -0.47503,-0.51668 -0.82266,-0.65838 -0.77644,-0.31647 0.0462,0.34189 0.48273,1.03486 0.93674,1.55614 0,0 0,0 0,0 m 0.4956,2.57979 c 0.43295,0.52498 0.76905,0.66896 0.75067,0.32156 -0.0184,-0.34739 -0.40124,-1.0516 -0.85524,-1.57288 -0.45399,-0.52127 -0.79585,-0.66423 -0.76355,-0.31928 0.0323,0.34493 0.43516,1.04561 0.86812,1.5706 0,0 0,0 0,0 m 0.38842,2.59803 c 0.4117,0.52786 0.74197,0.67262 0.73765,0.32333 -0.004,-0.3493 -0.35571,-1.05845 -0.78867,-1.58344 -0.43295,-0.52498 -0.76903,-0.66896 -0.75066,-0.32156 0.0183,0.34739 0.38996,1.05382 0.80168,1.58167 0,0 0,0 0,0 m 0.29887,2.61013 c 0.41171,0.52785 0.74197,0.67262 0.73766,0.32332 -0.004,-0.34929 -0.34158,-1.06036 -0.75328,-1.58821 -0.41171,-0.52785 -0.74196,-0.67262 -0.73766,-0.32331 0.004,0.34928 0.34157,1.06034 0.75328,1.5882 0,0 0,0 0,0"
             id="path4731" />
        </g>
        <g
           transform="matrix(-0.39341851,0,0,0.7584464,292.33173,20.481027)"
           id="g4273">
          <path
             inkscape:connector-curvature="0"
             id="path4275"
             d="m 209.87581,126.32793 c 0.14449,-1.65878 0.17095,-7.79521 0.22558,-9.44788 1.67594,-50.699708 21.8446,-32.014928 24.46753,-4.11506"
             style="fill:none;stroke:#808000;stroke-width:0.22803727;stroke-linecap:butt;stroke-linejoin:miter;stroke-miterlimit:4;stroke-opacity:1;stroke-dasharray:none" />
          <path
             id="path4277"
             d="m 210.47204,124.47526 c 0.36232,-0.53122 0.67905,-0.67691 0.7074,-0.32539 0.0284,0.35152 -0.26058,1.06643 -0.63601,1.59715 -0.37543,0.53073 -0.69574,0.67628 -0.71543,0.32508 -0.0197,-0.35118 0.2817,-1.06562 0.64404,-1.59684 0,0 0,0 0,0 m 0.0547,-2.62678 c 0.36232,-0.53122 0.6769,-0.67694 0.70669,-0.32539 0.0298,0.35154 -0.24168,1.06713 -0.604,1.59835 -0.36233,0.53122 -0.67904,0.67691 -0.70741,0.32538 -0.0284,-0.35151 0.24238,-1.06711 0.60472,-1.59834 0,0 0,0 0,0 m 0.0446,-2.62694 c 0.36016,-0.53125 0.67629,-0.67695 0.70608,-0.3254 0.0298,0.35154 -0.23804,1.06719 -0.5982,1.59845 -0.36016,0.53125 -0.67628,0.67695 -0.70608,0.3254 -0.0298,-0.35154 0.23803,-1.06719 0.5982,-1.59845 0,0 0,0 0,0 m 0.0552,-2.62659 c 0.37577,-0.53076 0.69618,-0.67632 0.71565,-0.3251 0.0195,0.35121 -0.25879,1.06653 -0.61895,1.59779 -0.36016,0.53125 -0.67628,0.67695 -0.70608,0.3254 -0.0298,-0.35154 0.2336,-1.06733 0.60938,-1.59809 0,0 0,0 0,0 m 0.1212,-2.62448 c 0.37577,-0.53076 0.69618,-0.67632 0.71565,-0.3251 0.0195,0.35121 -0.2694,1.06619 -0.64517,1.59695 -0.37577,0.53075 -0.69618,0.67631 -0.71565,0.32509 -0.0195,-0.35121 0.26939,-1.06618 0.64517,-1.59694 0,0 0,0 0,0 m 0.15218,-2.6226 c 0.39103,-0.52982 0.71563,-0.67513 0.72499,-0.32453 0.009,0.3506 -0.30972,1.06373 -0.68549,1.59449 -0.37577,0.53076 -0.69618,0.67632 -0.71565,0.3251 -0.0195,-0.35121 0.28512,-1.06523 0.67615,-1.59506 0,0 0,0 0,0 m 0.19665,-2.61988 c 0.39103,-0.52983 0.71563,-0.67514 0.72499,-0.32454 0.009,0.3506 -0.30005,1.06433 -0.69108,1.59416 -0.39102,0.52982 -0.71561,0.67513 -0.72498,0.32452 -0.009,-0.35059 0.30003,-1.06431 0.69107,-1.59414 0,0 0,0 0,0 m 0.26696,-2.61343 c 0.40828,-0.52825 0.73761,-0.67312 0.73556,-0.32357 -0.002,0.34955 -0.33471,1.06114 -0.74298,1.58939 -0.40828,0.52824 -0.7376,0.67311 -0.73556,0.32355 0.002,-0.34954 0.33469,-1.06113 0.74298,-1.58937 0,0 0,0 0,0 m 0.31894,-2.60735 c 0.42795,-0.52574 0.76267,-0.66992 0.7476,-0.32203 -0.015,0.34789 -0.38374,1.0549 -0.79202,1.58314 -0.40828,0.52825 -0.73759,0.67312 -0.73555,0.32356 0.002,-0.34954 0.35201,-1.05893 0.77997,-1.58467 0,0 0,0 0,0 m 0.3874,-2.59829 c 0.45057,-0.52193 0.7915,-0.66507 0.76146,-0.3197 -0.03,0.34538 -0.39626,1.0524 -0.82421,1.57814 -0.42795,0.52574 -0.76266,0.66993 -0.7476,0.32202 0.015,-0.34788 0.35977,-1.05853 0.81035,-1.58046 0,0 0,0 0,0 m 0.49109,-2.580816 c 0.45057,-0.521927 0.81159,-0.660698 0.76417,-0.319105 -0.0474,0.341593 -0.42237,1.047862 -0.87295,1.569789 -0.45057,0.521922 -0.79149,0.665062 -0.76146,0.319684 0.03,-0.345361 0.41965,-1.048441 0.87024,-1.570368 0,0 0,0 0,0 m 0.6076,-2.555488 c 0.47684,-0.516217 0.82497,-0.657789 0.77755,-0.316197 -0.0474,0.341593 -0.47243,1.036981 -0.94927,1.553198 -0.47685,0.516217 -0.82497,0.657789 -0.77755,0.316187 0.0474,-0.341583 0.47242,-1.036971 0.94927,-1.553188 0,0 0,0 0,0 m 0.74961,-2.517036 c 0.50761,-0.507715 0.88661,-0.639447 0.80113,-0.309406 -0.0855,0.330042 -0.53897,1.018318 -1.04658,1.526033 -0.50761,0.507715 -0.86417,0.646956 -0.7964,0.31098 0.0678,-0.335958 0.53423,-1.019892 1.04185,-1.527607 0,0 0,0 0,0 m 0.95077,-2.44744 c 0.5756,-0.481603 0.95082,-0.613683 0.83804,-0.294995 -0.11275,0.318688 -0.65026,0.976485 -1.20437,1.467537 -0.55411,0.491053 -0.89851,0.635451 -0.81303,0.3054 0.0855,-0.330032 0.60375,-0.996338 1.17936,-1.477942 0,0 0,0 0,0 m 1.24413,-2.31055 c 0.65158,-0.438212 1.04763,-0.558391 0.88458,-0.268417 -0.16303,0.289975 -0.80201,0.894902 -1.40098,1.364904 -0.59896,0.470002 -0.98057,0.5989 -0.85235,0.28788 0.12821,-0.311002 0.71715,-0.946156 1.36875,-1.384367 0,0 0,0 0,0 m 1.69187,-1.997907 c 0.74319,-0.358503 1.19648,-0.418185 0.95179,-0.20625 -0.24467,0.211936 -1.0314,0.69792 -1.71215,1.114618 -0.68075,0.416697 -1.08479,0.530976 -0.90244,0.25523 0.18232,-0.27573 0.9196,-0.805095 1.6628,-1.163598 0,0 0,0 0,0 m 2.29985,-1.203383 c 0.87196,-0.104144 1.3345,-0.08873 1.01981,-0.06206 -0.31467,0.02667 -1.25023,0.268982 -2.08318,0.49257 -0.83295,0.223589 -1.24493,0.348417 -0.98008,0.166251 0.26483,-0.182155 1.17148,-0.492613 2.04345,-0.596757 0,0 0,0 0,0 m 2.57881,0.221388 c 0.84762,0.189038 1.29744,0.240882 1.00466,0.115791 -0.29275,-0.125091 -1.23329,-0.330649 -2.10904,-0.413972 -0.87575,-0.08332 -1.34091,-0.02997 -1.02552,-0.01477 0.31536,0.0152 1.28227,0.12391 2.1299,0.312948 0,0 0,0 0,0 m 2.24543,1.337091 c 0.76549,0.332622 1.17469,0.445072 0.94995,0.20891 -0.22472,-0.236161 -1.04563,-0.679316 -1.85356,-0.950673 -0.80793,-0.271357 -1.24685,-0.345776 -0.98034,-0.166208 0.26647,0.179558 1.11844,0.57535 1.88395,0.907971 0,0 0,0 0,0 m 1.84187,1.866263 c 0.67884,0.418151 1.08237,0.532829 0.90128,0.256129 -0.18107,-0.276701 -0.89467,-0.827266 -1.61953,-1.205002 -0.72485,-0.377736 -1.14099,-0.48133 -0.92946,-0.231366 0.21151,0.24995 0.96885,0.762088 1.64771,1.180239 0,0 0,0 0,0 m 1.54233,2.123867 c 0.6461,0.441904 1.04064,0.563096 0.88123,0.270678 -0.1594,-0.292418 -0.78066,-0.910735 -1.45951,-1.328886 -0.67884,-0.418152 -1.08236,-0.53283 -0.90127,-0.256122 0.18106,0.276693 0.83345,0.872427 1.47955,1.31433 0,0 0,0 0,0 m 1.32242,2.268066 c 0.58929,0.474969 0.96826,0.605229 0.84643,0.290931 -0.12181,-0.314298 -0.7209,-0.941948 -1.33733,-1.402297 -0.61642,-0.460349 -1.00282,-0.586599 -0.86304,-0.281967 0.13976,0.304614 0.76465,0.918364 1.35394,1.393333 0,0 0,0 0,0 m 1.13156,2.369938 c 0.56414,0.486769 0.93621,0.620266 0.83103,0.298159 -0.10517,-0.322107 -0.63748,-0.982671 -1.22677,-1.457639 -0.58928,-0.474969 -0.96824,-0.605229 -0.84642,-0.290922 0.1218,0.314288 0.67801,0.963632 1.24216,1.450402 0,0 0,0 0,0 m 0.9854,2.434502 c 0.54052,0.496439 0.90611,0.632587 0.81655,0.304082 -0.0895,-0.328505 -0.60035,-0.99725 -1.14087,-1.493689 -0.54052,-0.496438 -0.92555,-0.624629 -0.82036,-0.302514 0.10516,0.322098 0.60414,0.995682 1.14468,1.492121 0,0 0,0 0,0 m 0.85259,2.484414 c 0.51802,0.50445 0.86203,0.64753 0.80174,0.30931 -0.0603,-0.33822 -0.55411,-1.013657 -1.07213,-1.518105 -0.51802,-0.504448 -0.87744,-0.642793 -0.80277,-0.308979 0.0746,0.333796 0.55513,1.013331 1.07316,1.517774 0,0 0,0 0,0 m 0.72941,2.52363 c 0.49629,0.51112 0.82358,0.65815 0.77736,0.31624 -0.0462,-0.3419 -0.49939,-1.02991 -0.99568,-1.54104 -0.49629,-0.51112 -0.84974,-0.6513 -0.78946,-0.31306 0.0603,0.33821 0.51148,1.02673 1.00778,1.53786 0,0 0,0 0,0 m 0.60586,2.5562 c 0.454,0.52128 0.79586,0.66424 0.76356,0.31929 -0.0323,-0.34494 -0.44883,-1.04227 -0.92386,-1.55896 -0.47503,-0.51668 -0.82266,-0.65838 -0.77644,-0.31647 0.0462,0.34189 0.48273,1.03486 0.93674,1.55614 0,0 0,0 0,0 m 0.4956,2.57979 c 0.43295,0.52498 0.76905,0.66896 0.75067,0.32156 -0.0184,-0.34739 -0.40124,-1.0516 -0.85524,-1.57288 -0.45399,-0.52127 -0.79585,-0.66423 -0.76355,-0.31928 0.0323,0.34493 0.43516,1.04561 0.86812,1.5706 0,0 0,0 0,0 m 0.38842,2.59803 c 0.4117,0.52786 0.74197,0.67262 0.73765,0.32333 -0.004,-0.3493 -0.35571,-1.05845 -0.78867,-1.58344 -0.43295,-0.52498 -0.76903,-0.66896 -0.75066,-0.32156 0.0183,0.34739 0.38996,1.05382 0.80168,1.58167 0,0 0,0 0,0 m 0.29887,2.61013 c 0.41171,0.52785 0.74197,0.67262 0.73766,0.32332 -0.004,-0.34929 -0.34158,-1.06036 -0.75328,-1.58821 -0.41171,-0.52785 -0.74196,-0.67262 -0.73766,-0.32331 0.004,0.34928 0.34157,1.06034 0.75328,1.5882 0,0 0,0 0,0"
             style="fill:#89a02c;fill-opacity:1;stroke:none"
             inkscape:connector-curvature="0" />
        </g>
        <g
           id="g4279"
           transform="matrix(-0.27618975,0,0,0.7584464,267.73385,20.481027)">
          <path
             style="fill:none;stroke:#808000;stroke-width:0.22803727;stroke-linecap:butt;stroke-linejoin:miter;stroke-miterlimit:4;stroke-opacity:1;stroke-dasharray:none"
             d="m 209.87581,126.32793 c 0.14449,-1.65878 0.17095,-7.79521 0.22558,-9.44788 1.67594,-50.699708 21.8446,-32.014928 24.46753,-4.11506"
             id="path4281"
             inkscape:connector-curvature="0" />
          <path
             inkscape:connector-curvature="0"
             style="fill:#89a02c;fill-opacity:1;stroke:none"
             d="m 210.47204,124.47526 c 0.36232,-0.53122 0.67905,-0.67691 0.7074,-0.32539 0.0284,0.35152 -0.26058,1.06643 -0.63601,1.59715 -0.37543,0.53073 -0.69574,0.67628 -0.71543,0.32508 -0.0197,-0.35118 0.2817,-1.06562 0.64404,-1.59684 0,0 0,0 0,0 m 0.0547,-2.62678 c 0.36232,-0.53122 0.6769,-0.67694 0.70669,-0.32539 0.0298,0.35154 -0.24168,1.06713 -0.604,1.59835 -0.36233,0.53122 -0.67904,0.67691 -0.70741,0.32538 -0.0284,-0.35151 0.24238,-1.06711 0.60472,-1.59834 0,0 0,0 0,0 m 0.0446,-2.62694 c 0.36016,-0.53125 0.67629,-0.67695 0.70608,-0.3254 0.0298,0.35154 -0.23804,1.06719 -0.5982,1.59845 -0.36016,0.53125 -0.67628,0.67695 -0.70608,0.3254 -0.0298,-0.35154 0.23803,-1.06719 0.5982,-1.59845 0,0 0,0 0,0 m 0.0552,-2.62659 c 0.37577,-0.53076 0.69618,-0.67632 0.71565,-0.3251 0.0195,0.35121 -0.25879,1.06653 -0.61895,1.59779 -0.36016,0.53125 -0.67628,0.67695 -0.70608,0.3254 -0.0298,-0.35154 0.2336,-1.06733 0.60938,-1.59809 0,0 0,0 0,0 m 0.1212,-2.62448 c 0.37577,-0.53076 0.69618,-0.67632 0.71565,-0.3251 0.0195,0.35121 -0.2694,1.06619 -0.64517,1.59695 -0.37577,0.53075 -0.69618,0.67631 -0.71565,0.32509 -0.0195,-0.35121 0.26939,-1.06618 0.64517,-1.59694 0,0 0,0 0,0 m 0.15218,-2.6226 c 0.39103,-0.52982 0.71563,-0.67513 0.72499,-0.32453 0.009,0.3506 -0.30972,1.06373 -0.68549,1.59449 -0.37577,0.53076 -0.69618,0.67632 -0.71565,0.3251 -0.0195,-0.35121 0.28512,-1.06523 0.67615,-1.59506 0,0 0,0 0,0 m 0.19665,-2.61988 c 0.39103,-0.52983 0.71563,-0.67514 0.72499,-0.32454 0.009,0.3506 -0.30005,1.06433 -0.69108,1.59416 -0.39102,0.52982 -0.71561,0.67513 -0.72498,0.32452 -0.009,-0.35059 0.30003,-1.06431 0.69107,-1.59414 0,0 0,0 0,0 m 0.26696,-2.61343 c 0.40828,-0.52825 0.73761,-0.67312 0.73556,-0.32357 -0.002,0.34955 -0.33471,1.06114 -0.74298,1.58939 -0.40828,0.52824 -0.7376,0.67311 -0.73556,0.32355 0.002,-0.34954 0.33469,-1.06113 0.74298,-1.58937 0,0 0,0 0,0 m 0.31894,-2.60735 c 0.42795,-0.52574 0.76267,-0.66992 0.7476,-0.32203 -0.015,0.34789 -0.38374,1.0549 -0.79202,1.58314 -0.40828,0.52825 -0.73759,0.67312 -0.73555,0.32356 0.002,-0.34954 0.35201,-1.05893 0.77997,-1.58467 0,0 0,0 0,0 m 0.3874,-2.59829 c 0.45057,-0.52193 0.7915,-0.66507 0.76146,-0.3197 -0.03,0.34538 -0.39626,1.0524 -0.82421,1.57814 -0.42795,0.52574 -0.76266,0.66993 -0.7476,0.32202 0.015,-0.34788 0.35977,-1.05853 0.81035,-1.58046 0,0 0,0 0,0 m 0.49109,-2.580816 c 0.45057,-0.521927 0.81159,-0.660698 0.76417,-0.319105 -0.0474,0.341593 -0.42237,1.047862 -0.87295,1.569789 -0.45057,0.521922 -0.79149,0.665062 -0.76146,0.319684 0.03,-0.345361 0.41965,-1.048441 0.87024,-1.570368 0,0 0,0 0,0 m 0.6076,-2.555488 c 0.47684,-0.516217 0.82497,-0.657789 0.77755,-0.316197 -0.0474,0.341593 -0.47243,1.036981 -0.94927,1.553198 -0.47685,0.516217 -0.82497,0.657789 -0.77755,0.316187 0.0474,-0.341583 0.47242,-1.036971 0.94927,-1.553188 0,0 0,0 0,0 m 0.74961,-2.517036 c 0.50761,-0.507715 0.88661,-0.639447 0.80113,-0.309406 -0.0855,0.330042 -0.53897,1.018318 -1.04658,1.526033 -0.50761,0.507715 -0.86417,0.646956 -0.7964,0.31098 0.0678,-0.335958 0.53423,-1.019892 1.04185,-1.527607 0,0 0,0 0,0 m 0.95077,-2.44744 c 0.5756,-0.481603 0.95082,-0.613683 0.83804,-0.294995 -0.11275,0.318688 -0.65026,0.976485 -1.20437,1.467537 -0.55411,0.491053 -0.89851,0.635451 -0.81303,0.3054 0.0855,-0.330032 0.60375,-0.996338 1.17936,-1.477942 0,0 0,0 0,0 m 1.24413,-2.31055 c 0.65158,-0.438212 1.04763,-0.558391 0.88458,-0.268417 -0.16303,0.289975 -0.80201,0.894902 -1.40098,1.364904 -0.59896,0.470002 -0.98057,0.5989 -0.85235,0.28788 0.12821,-0.311002 0.71715,-0.946156 1.36875,-1.384367 0,0 0,0 0,0 m 1.69187,-1.997907 c 0.74319,-0.358503 1.19648,-0.418185 0.95179,-0.20625 -0.24467,0.211936 -1.0314,0.69792 -1.71215,1.114618 -0.68075,0.416697 -1.08479,0.530976 -0.90244,0.25523 0.18232,-0.27573 0.9196,-0.805095 1.6628,-1.163598 0,0 0,0 0,0 m 2.29985,-1.203383 c 0.87196,-0.104144 1.3345,-0.08873 1.01981,-0.06206 -0.31467,0.02667 -1.25023,0.268982 -2.08318,0.49257 -0.83295,0.223589 -1.24493,0.348417 -0.98008,0.166251 0.26483,-0.182155 1.17148,-0.492613 2.04345,-0.596757 0,0 0,0 0,0 m 2.57881,0.221388 c 0.84762,0.189038 1.29744,0.240882 1.00466,0.115791 -0.29275,-0.125091 -1.23329,-0.330649 -2.10904,-0.413972 -0.87575,-0.08332 -1.34091,-0.02997 -1.02552,-0.01477 0.31536,0.0152 1.28227,0.12391 2.1299,0.312948 0,0 0,0 0,0 m 2.24543,1.337091 c 0.76549,0.332622 1.17469,0.445072 0.94995,0.20891 -0.22472,-0.236161 -1.04563,-0.679316 -1.85356,-0.950673 -0.80793,-0.271357 -1.24685,-0.345776 -0.98034,-0.166208 0.26647,0.179558 1.11844,0.57535 1.88395,0.907971 0,0 0,0 0,0 m 1.84187,1.866263 c 0.67884,0.418151 1.08237,0.532829 0.90128,0.256129 -0.18107,-0.276701 -0.89467,-0.827266 -1.61953,-1.205002 -0.72485,-0.377736 -1.14099,-0.48133 -0.92946,-0.231366 0.21151,0.24995 0.96885,0.762088 1.64771,1.180239 0,0 0,0 0,0 m 1.54233,2.123867 c 0.6461,0.441904 1.04064,0.563096 0.88123,0.270678 -0.1594,-0.292418 -0.78066,-0.910735 -1.45951,-1.328886 -0.67884,-0.418152 -1.08236,-0.53283 -0.90127,-0.256122 0.18106,0.276693 0.83345,0.872427 1.47955,1.31433 0,0 0,0 0,0 m 1.32242,2.268066 c 0.58929,0.474969 0.96826,0.605229 0.84643,0.290931 -0.12181,-0.314298 -0.7209,-0.941948 -1.33733,-1.402297 -0.61642,-0.460349 -1.00282,-0.586599 -0.86304,-0.281967 0.13976,0.304614 0.76465,0.918364 1.35394,1.393333 0,0 0,0 0,0 m 1.13156,2.369938 c 0.56414,0.486769 0.93621,0.620266 0.83103,0.298159 -0.10517,-0.322107 -0.63748,-0.982671 -1.22677,-1.457639 -0.58928,-0.474969 -0.96824,-0.605229 -0.84642,-0.290922 0.1218,0.314288 0.67801,0.963632 1.24216,1.450402 0,0 0,0 0,0 m 0.9854,2.434502 c 0.54052,0.496439 0.90611,0.632587 0.81655,0.304082 -0.0895,-0.328505 -0.60035,-0.99725 -1.14087,-1.493689 -0.54052,-0.496438 -0.92555,-0.624629 -0.82036,-0.302514 0.10516,0.322098 0.60414,0.995682 1.14468,1.492121 0,0 0,0 0,0 m 0.85259,2.484414 c 0.51802,0.50445 0.86203,0.64753 0.80174,0.30931 -0.0603,-0.33822 -0.55411,-1.013657 -1.07213,-1.518105 -0.51802,-0.504448 -0.87744,-0.642793 -0.80277,-0.308979 0.0746,0.333796 0.55513,1.013331 1.07316,1.517774 0,0 0,0 0,0 m 0.72941,2.52363 c 0.49629,0.51112 0.82358,0.65815 0.77736,0.31624 -0.0462,-0.3419 -0.49939,-1.02991 -0.99568,-1.54104 -0.49629,-0.51112 -0.84974,-0.6513 -0.78946,-0.31306 0.0603,0.33821 0.51148,1.02673 1.00778,1.53786 0,0 0,0 0,0 m 0.60586,2.5562 c 0.454,0.52128 0.79586,0.66424 0.76356,0.31929 -0.0323,-0.34494 -0.44883,-1.04227 -0.92386,-1.55896 -0.47503,-0.51668 -0.82266,-0.65838 -0.77644,-0.31647 0.0462,0.34189 0.48273,1.03486 0.93674,1.55614 0,0 0,0 0,0 m 0.4956,2.57979 c 0.43295,0.52498 0.76905,0.66896 0.75067,0.32156 -0.0184,-0.34739 -0.40124,-1.0516 -0.85524,-1.57288 -0.45399,-0.52127 -0.79585,-0.66423 -0.76355,-0.31928 0.0323,0.34493 0.43516,1.04561 0.86812,1.5706 0,0 0,0 0,0 m 0.38842,2.59803 c 0.4117,0.52786 0.74197,0.67262 0.73765,0.32333 -0.004,-0.3493 -0.35571,-1.05845 -0.78867,-1.58344 -0.43295,-0.52498 -0.76903,-0.66896 -0.75066,-0.32156 0.0183,0.34739 0.38996,1.05382 0.80168,1.58167 0,0 0,0 0,0 m 0.29887,2.61013 c 0.41171,0.52785 0.74197,0.67262 0.73766,0.32332 -0.004,-0.34929 -0.34158,-1.06036 -0.75328,-1.58821 -0.41171,-0.52785 -0.74196,-0.67262 -0.73766,-0.32331 0.004,0.34928 0.34157,1.06034 0.75328,1.5882 0,0 0,0 0,0"
             id="path4283" />
        </g>
        <g
           transform="matrix(0.27618975,0,0,0.7584464,151.8411,20.481027)"
           id="g4285">
          <path
             inkscape:connector-curvature="0"
             id="path4287"
             d="m 209.87581,126.32793 c 0.14449,-1.65878 0.17095,-7.79521 0.22558,-9.44788 1.67594,-50.699708 21.8446,-32.014928 24.46753,-4.11506"
             style="fill:none;stroke:#808000;stroke-width:0.22803727;stroke-linecap:butt;stroke-linejoin:miter;stroke-miterlimit:4;stroke-opacity:1;stroke-dasharray:none" />
          <path
             id="path4289"
             d="m 210.47204,124.47526 c 0.36232,-0.53122 0.67905,-0.67691 0.7074,-0.32539 0.0284,0.35152 -0.26058,1.06643 -0.63601,1.59715 -0.37543,0.53073 -0.69574,0.67628 -0.71543,0.32508 -0.0197,-0.35118 0.2817,-1.06562 0.64404,-1.59684 0,0 0,0 0,0 m 0.0547,-2.62678 c 0.36232,-0.53122 0.6769,-0.67694 0.70669,-0.32539 0.0298,0.35154 -0.24168,1.06713 -0.604,1.59835 -0.36233,0.53122 -0.67904,0.67691 -0.70741,0.32538 -0.0284,-0.35151 0.24238,-1.06711 0.60472,-1.59834 0,0 0,0 0,0 m 0.0446,-2.62694 c 0.36016,-0.53125 0.67629,-0.67695 0.70608,-0.3254 0.0298,0.35154 -0.23804,1.06719 -0.5982,1.59845 -0.36016,0.53125 -0.67628,0.67695 -0.70608,0.3254 -0.0298,-0.35154 0.23803,-1.06719 0.5982,-1.59845 0,0 0,0 0,0 m 0.0552,-2.62659 c 0.37577,-0.53076 0.69618,-0.67632 0.71565,-0.3251 0.0195,0.35121 -0.25879,1.06653 -0.61895,1.59779 -0.36016,0.53125 -0.67628,0.67695 -0.70608,0.3254 -0.0298,-0.35154 0.2336,-1.06733 0.60938,-1.59809 0,0 0,0 0,0 m 0.1212,-2.62448 c 0.37577,-0.53076 0.69618,-0.67632 0.71565,-0.3251 0.0195,0.35121 -0.2694,1.06619 -0.64517,1.59695 -0.37577,0.53075 -0.69618,0.67631 -0.71565,0.32509 -0.0195,-0.35121 0.26939,-1.06618 0.64517,-1.59694 0,0 0,0 0,0 m 0.15218,-2.6226 c 0.39103,-0.52982 0.71563,-0.67513 0.72499,-0.32453 0.009,0.3506 -0.30972,1.06373 -0.68549,1.59449 -0.37577,0.53076 -0.69618,0.67632 -0.71565,0.3251 -0.0195,-0.35121 0.28512,-1.06523 0.67615,-1.59506 0,0 0,0 0,0 m 0.19665,-2.61988 c 0.39103,-0.52983 0.71563,-0.67514 0.72499,-0.32454 0.009,0.3506 -0.30005,1.06433 -0.69108,1.59416 -0.39102,0.52982 -0.71561,0.67513 -0.72498,0.32452 -0.009,-0.35059 0.30003,-1.06431 0.69107,-1.59414 0,0 0,0 0,0 m 0.26696,-2.61343 c 0.40828,-0.52825 0.73761,-0.67312 0.73556,-0.32357 -0.002,0.34955 -0.33471,1.06114 -0.74298,1.58939 -0.40828,0.52824 -0.7376,0.67311 -0.73556,0.32355 0.002,-0.34954 0.33469,-1.06113 0.74298,-1.58937 0,0 0,0 0,0 m 0.31894,-2.60735 c 0.42795,-0.52574 0.76267,-0.66992 0.7476,-0.32203 -0.015,0.34789 -0.38374,1.0549 -0.79202,1.58314 -0.40828,0.52825 -0.73759,0.67312 -0.73555,0.32356 0.002,-0.34954 0.35201,-1.05893 0.77997,-1.58467 0,0 0,0 0,0 m 0.3874,-2.59829 c 0.45057,-0.52193 0.7915,-0.66507 0.76146,-0.3197 -0.03,0.34538 -0.39626,1.0524 -0.82421,1.57814 -0.42795,0.52574 -0.76266,0.66993 -0.7476,0.32202 0.015,-0.34788 0.35977,-1.05853 0.81035,-1.58046 0,0 0,0 0,0 m 0.49109,-2.580816 c 0.45057,-0.521927 0.81159,-0.660698 0.76417,-0.319105 -0.0474,0.341593 -0.42237,1.047862 -0.87295,1.569789 -0.45057,0.521922 -0.79149,0.665062 -0.76146,0.319684 0.03,-0.345361 0.41965,-1.048441 0.87024,-1.570368 0,0 0,0 0,0 m 0.6076,-2.555488 c 0.47684,-0.516217 0.82497,-0.657789 0.77755,-0.316197 -0.0474,0.341593 -0.47243,1.036981 -0.94927,1.553198 -0.47685,0.516217 -0.82497,0.657789 -0.77755,0.316187 0.0474,-0.341583 0.47242,-1.036971 0.94927,-1.553188 0,0 0,0 0,0 m 0.74961,-2.517036 c 0.50761,-0.507715 0.88661,-0.639447 0.80113,-0.309406 -0.0855,0.330042 -0.53897,1.018318 -1.04658,1.526033 -0.50761,0.507715 -0.86417,0.646956 -0.7964,0.31098 0.0678,-0.335958 0.53423,-1.019892 1.04185,-1.527607 0,0 0,0 0,0 m 0.95077,-2.44744 c 0.5756,-0.481603 0.95082,-0.613683 0.83804,-0.294995 -0.11275,0.318688 -0.65026,0.976485 -1.20437,1.467537 -0.55411,0.491053 -0.89851,0.635451 -0.81303,0.3054 0.0855,-0.330032 0.60375,-0.996338 1.17936,-1.477942 0,0 0,0 0,0 m 1.24413,-2.31055 c 0.65158,-0.438212 1.04763,-0.558391 0.88458,-0.268417 -0.16303,0.289975 -0.80201,0.894902 -1.40098,1.364904 -0.59896,0.470002 -0.98057,0.5989 -0.85235,0.28788 0.12821,-0.311002 0.71715,-0.946156 1.36875,-1.384367 0,0 0,0 0,0 m 1.69187,-1.997907 c 0.74319,-0.358503 1.19648,-0.418185 0.95179,-0.20625 -0.24467,0.211936 -1.0314,0.69792 -1.71215,1.114618 -0.68075,0.416697 -1.08479,0.530976 -0.90244,0.25523 0.18232,-0.27573 0.9196,-0.805095 1.6628,-1.163598 0,0 0,0 0,0 m 2.29985,-1.203383 c 0.87196,-0.104144 1.3345,-0.08873 1.01981,-0.06206 -0.31467,0.02667 -1.25023,0.268982 -2.08318,0.49257 -0.83295,0.223589 -1.24493,0.348417 -0.98008,0.166251 0.26483,-0.182155 1.17148,-0.492613 2.04345,-0.596757 0,0 0,0 0,0 m 2.57881,0.221388 c 0.84762,0.189038 1.29744,0.240882 1.00466,0.115791 -0.29275,-0.125091 -1.23329,-0.330649 -2.10904,-0.413972 -0.87575,-0.08332 -1.34091,-0.02997 -1.02552,-0.01477 0.31536,0.0152 1.28227,0.12391 2.1299,0.312948 0,0 0,0 0,0 m 2.24543,1.337091 c 0.76549,0.332622 1.17469,0.445072 0.94995,0.20891 -0.22472,-0.236161 -1.04563,-0.679316 -1.85356,-0.950673 -0.80793,-0.271357 -1.24685,-0.345776 -0.98034,-0.166208 0.26647,0.179558 1.11844,0.57535 1.88395,0.907971 0,0 0,0 0,0 m 1.84187,1.866263 c 0.67884,0.418151 1.08237,0.532829 0.90128,0.256129 -0.18107,-0.276701 -0.89467,-0.827266 -1.61953,-1.205002 -0.72485,-0.377736 -1.14099,-0.48133 -0.92946,-0.231366 0.21151,0.24995 0.96885,0.762088 1.64771,1.180239 0,0 0,0 0,0 m 1.54233,2.123867 c 0.6461,0.441904 1.04064,0.563096 0.88123,0.270678 -0.1594,-0.292418 -0.78066,-0.910735 -1.45951,-1.328886 -0.67884,-0.418152 -1.08236,-0.53283 -0.90127,-0.256122 0.18106,0.276693 0.83345,0.872427 1.47955,1.31433 0,0 0,0 0,0 m 1.32242,2.268066 c 0.58929,0.474969 0.96826,0.605229 0.84643,0.290931 -0.12181,-0.314298 -0.7209,-0.941948 -1.33733,-1.402297 -0.61642,-0.460349 -1.00282,-0.586599 -0.86304,-0.281967 0.13976,0.304614 0.76465,0.918364 1.35394,1.393333 0,0 0,0 0,0 m 1.13156,2.369938 c 0.56414,0.486769 0.93621,0.620266 0.83103,0.298159 -0.10517,-0.322107 -0.63748,-0.982671 -1.22677,-1.457639 -0.58928,-0.474969 -0.96824,-0.605229 -0.84642,-0.290922 0.1218,0.314288 0.67801,0.963632 1.24216,1.450402 0,0 0,0 0,0 m 0.9854,2.434502 c 0.54052,0.496439 0.90611,0.632587 0.81655,0.304082 -0.0895,-0.328505 -0.60035,-0.99725 -1.14087,-1.493689 -0.54052,-0.496438 -0.92555,-0.624629 -0.82036,-0.302514 0.10516,0.322098 0.60414,0.995682 1.14468,1.492121 0,0 0,0 0,0 m 0.85259,2.484414 c 0.51802,0.50445 0.86203,0.64753 0.80174,0.30931 -0.0603,-0.33822 -0.55411,-1.013657 -1.07213,-1.518105 -0.51802,-0.504448 -0.87744,-0.642793 -0.80277,-0.308979 0.0746,0.333796 0.55513,1.013331 1.07316,1.517774 0,0 0,0 0,0 m 0.72941,2.52363 c 0.49629,0.51112 0.82358,0.65815 0.77736,0.31624 -0.0462,-0.3419 -0.49939,-1.02991 -0.99568,-1.54104 -0.49629,-0.51112 -0.84974,-0.6513 -0.78946,-0.31306 0.0603,0.33821 0.51148,1.02673 1.00778,1.53786 0,0 0,0 0,0 m 0.60586,2.5562 c 0.454,0.52128 0.79586,0.66424 0.76356,0.31929 -0.0323,-0.34494 -0.44883,-1.04227 -0.92386,-1.55896 -0.47503,-0.51668 -0.82266,-0.65838 -0.77644,-0.31647 0.0462,0.34189 0.48273,1.03486 0.93674,1.55614 0,0 0,0 0,0 m 0.4956,2.57979 c 0.43295,0.52498 0.76905,0.66896 0.75067,0.32156 -0.0184,-0.34739 -0.40124,-1.0516 -0.85524,-1.57288 -0.45399,-0.52127 -0.79585,-0.66423 -0.76355,-0.31928 0.0323,0.34493 0.43516,1.04561 0.86812,1.5706 0,0 0,0 0,0 m 0.38842,2.59803 c 0.4117,0.52786 0.74197,0.67262 0.73765,0.32333 -0.004,-0.3493 -0.35571,-1.05845 -0.78867,-1.58344 -0.43295,-0.52498 -0.76903,-0.66896 -0.75066,-0.32156 0.0183,0.34739 0.38996,1.05382 0.80168,1.58167 0,0 0,0 0,0 m 0.29887,2.61013 c 0.41171,0.52785 0.74197,0.67262 0.73766,0.32332 -0.004,-0.34929 -0.34158,-1.06036 -0.75328,-1.58821 -0.41171,-0.52785 -0.74196,-0.67262 -0.73766,-0.32331 0.004,0.34928 0.34157,1.06034 0.75328,1.5882 0,0 0,0 0,0"
             style="fill:#89a02c;fill-opacity:1;stroke:none"
             inkscape:connector-curvature="0" />
        </g>
        <g
           id="g4291"
           transform="matrix(0.11133681,0,0,0.7584464,186.43186,20.481027)">
          <path
             style="fill:none;stroke:#808000;stroke-width:0.22803727;stroke-linecap:butt;stroke-linejoin:miter;stroke-miterlimit:4;stroke-opacity:1;stroke-dasharray:none"
             d="m 209.87581,126.32793 c 0.14449,-1.65878 0.17095,-7.79521 0.22558,-9.44788 1.67594,-50.699708 21.8446,-32.014928 24.46753,-4.11506"
             id="path4293"
             inkscape:connector-curvature="0" />
          <path
             inkscape:connector-curvature="0"
             style="fill:#89a02c;fill-opacity:1;stroke:none"
             d="m 210.47204,124.47526 c 0.36232,-0.53122 0.67905,-0.67691 0.7074,-0.32539 0.0284,0.35152 -0.26058,1.06643 -0.63601,1.59715 -0.37543,0.53073 -0.69574,0.67628 -0.71543,0.32508 -0.0197,-0.35118 0.2817,-1.06562 0.64404,-1.59684 0,0 0,0 0,0 m 0.0547,-2.62678 c 0.36232,-0.53122 0.6769,-0.67694 0.70669,-0.32539 0.0298,0.35154 -0.24168,1.06713 -0.604,1.59835 -0.36233,0.53122 -0.67904,0.67691 -0.70741,0.32538 -0.0284,-0.35151 0.24238,-1.06711 0.60472,-1.59834 0,0 0,0 0,0 m 0.0446,-2.62694 c 0.36016,-0.53125 0.67629,-0.67695 0.70608,-0.3254 0.0298,0.35154 -0.23804,1.06719 -0.5982,1.59845 -0.36016,0.53125 -0.67628,0.67695 -0.70608,0.3254 -0.0298,-0.35154 0.23803,-1.06719 0.5982,-1.59845 0,0 0,0 0,0 m 0.0552,-2.62659 c 0.37577,-0.53076 0.69618,-0.67632 0.71565,-0.3251 0.0195,0.35121 -0.25879,1.06653 -0.61895,1.59779 -0.36016,0.53125 -0.67628,0.67695 -0.70608,0.3254 -0.0298,-0.35154 0.2336,-1.06733 0.60938,-1.59809 0,0 0,0 0,0 m 0.1212,-2.62448 c 0.37577,-0.53076 0.69618,-0.67632 0.71565,-0.3251 0.0195,0.35121 -0.2694,1.06619 -0.64517,1.59695 -0.37577,0.53075 -0.69618,0.67631 -0.71565,0.32509 -0.0195,-0.35121 0.26939,-1.06618 0.64517,-1.59694 0,0 0,0 0,0 m 0.15218,-2.6226 c 0.39103,-0.52982 0.71563,-0.67513 0.72499,-0.32453 0.009,0.3506 -0.30972,1.06373 -0.68549,1.59449 -0.37577,0.53076 -0.69618,0.67632 -0.71565,0.3251 -0.0195,-0.35121 0.28512,-1.06523 0.67615,-1.59506 0,0 0,0 0,0 m 0.19665,-2.61988 c 0.39103,-0.52983 0.71563,-0.67514 0.72499,-0.32454 0.009,0.3506 -0.30005,1.06433 -0.69108,1.59416 -0.39102,0.52982 -0.71561,0.67513 -0.72498,0.32452 -0.009,-0.35059 0.30003,-1.06431 0.69107,-1.59414 0,0 0,0 0,0 m 0.26696,-2.61343 c 0.40828,-0.52825 0.73761,-0.67312 0.73556,-0.32357 -0.002,0.34955 -0.33471,1.06114 -0.74298,1.58939 -0.40828,0.52824 -0.7376,0.67311 -0.73556,0.32355 0.002,-0.34954 0.33469,-1.06113 0.74298,-1.58937 0,0 0,0 0,0 m 0.31894,-2.60735 c 0.42795,-0.52574 0.76267,-0.66992 0.7476,-0.32203 -0.015,0.34789 -0.38374,1.0549 -0.79202,1.58314 -0.40828,0.52825 -0.73759,0.67312 -0.73555,0.32356 0.002,-0.34954 0.35201,-1.05893 0.77997,-1.58467 0,0 0,0 0,0 m 0.3874,-2.59829 c 0.45057,-0.52193 0.7915,-0.66507 0.76146,-0.3197 -0.03,0.34538 -0.39626,1.0524 -0.82421,1.57814 -0.42795,0.52574 -0.76266,0.66993 -0.7476,0.32202 0.015,-0.34788 0.35977,-1.05853 0.81035,-1.58046 0,0 0,0 0,0 m 0.49109,-2.580816 c 0.45057,-0.521927 0.81159,-0.660698 0.76417,-0.319105 -0.0474,0.341593 -0.42237,1.047862 -0.87295,1.569789 -0.45057,0.521922 -0.79149,0.665062 -0.76146,0.319684 0.03,-0.345361 0.41965,-1.048441 0.87024,-1.570368 0,0 0,0 0,0 m 0.6076,-2.555488 c 0.47684,-0.516217 0.82497,-0.657789 0.77755,-0.316197 -0.0474,0.341593 -0.47243,1.036981 -0.94927,1.553198 -0.47685,0.516217 -0.82497,0.657789 -0.77755,0.316187 0.0474,-0.341583 0.47242,-1.036971 0.94927,-1.553188 0,0 0,0 0,0 m 0.74961,-2.517036 c 0.50761,-0.507715 0.88661,-0.639447 0.80113,-0.309406 -0.0855,0.330042 -0.53897,1.018318 -1.04658,1.526033 -0.50761,0.507715 -0.86417,0.646956 -0.7964,0.31098 0.0678,-0.335958 0.53423,-1.019892 1.04185,-1.527607 0,0 0,0 0,0 m 0.95077,-2.44744 c 0.5756,-0.481603 0.95082,-0.613683 0.83804,-0.294995 -0.11275,0.318688 -0.65026,0.976485 -1.20437,1.467537 -0.55411,0.491053 -0.89851,0.635451 -0.81303,0.3054 0.0855,-0.330032 0.60375,-0.996338 1.17936,-1.477942 0,0 0,0 0,0 m 1.24413,-2.31055 c 0.65158,-0.438212 1.04763,-0.558391 0.88458,-0.268417 -0.16303,0.289975 -0.80201,0.894902 -1.40098,1.364904 -0.59896,0.470002 -0.98057,0.5989 -0.85235,0.28788 0.12821,-0.311002 0.71715,-0.946156 1.36875,-1.384367 0,0 0,0 0,0 m 1.69187,-1.997907 c 0.74319,-0.358503 1.19648,-0.418185 0.95179,-0.20625 -0.24467,0.211936 -1.0314,0.69792 -1.71215,1.114618 -0.68075,0.416697 -1.08479,0.530976 -0.90244,0.25523 0.18232,-0.27573 0.9196,-0.805095 1.6628,-1.163598 0,0 0,0 0,0 m 2.29985,-1.203383 c 0.87196,-0.104144 1.3345,-0.08873 1.01981,-0.06206 -0.31467,0.02667 -1.25023,0.268982 -2.08318,0.49257 -0.83295,0.223589 -1.24493,0.348417 -0.98008,0.166251 0.26483,-0.182155 1.17148,-0.492613 2.04345,-0.596757 0,0 0,0 0,0 m 2.57881,0.221388 c 0.84762,0.189038 1.29744,0.240882 1.00466,0.115791 -0.29275,-0.125091 -1.23329,-0.330649 -2.10904,-0.413972 -0.87575,-0.08332 -1.34091,-0.02997 -1.02552,-0.01477 0.31536,0.0152 1.28227,0.12391 2.1299,0.312948 0,0 0,0 0,0 m 2.24543,1.337091 c 0.76549,0.332622 1.17469,0.445072 0.94995,0.20891 -0.22472,-0.236161 -1.04563,-0.679316 -1.85356,-0.950673 -0.80793,-0.271357 -1.24685,-0.345776 -0.98034,-0.166208 0.26647,0.179558 1.11844,0.57535 1.88395,0.907971 0,0 0,0 0,0 m 1.84187,1.866263 c 0.67884,0.418151 1.08237,0.532829 0.90128,0.256129 -0.18107,-0.276701 -0.89467,-0.827266 -1.61953,-1.205002 -0.72485,-0.377736 -1.14099,-0.48133 -0.92946,-0.231366 0.21151,0.24995 0.96885,0.762088 1.64771,1.180239 0,0 0,0 0,0 m 1.54233,2.123867 c 0.6461,0.441904 1.04064,0.563096 0.88123,0.270678 -0.1594,-0.292418 -0.78066,-0.910735 -1.45951,-1.328886 -0.67884,-0.418152 -1.08236,-0.53283 -0.90127,-0.256122 0.18106,0.276693 0.83345,0.872427 1.47955,1.31433 0,0 0,0 0,0 m 1.32242,2.268066 c 0.58929,0.474969 0.96826,0.605229 0.84643,0.290931 -0.12181,-0.314298 -0.7209,-0.941948 -1.33733,-1.402297 -0.61642,-0.460349 -1.00282,-0.586599 -0.86304,-0.281967 0.13976,0.304614 0.76465,0.918364 1.35394,1.393333 0,0 0,0 0,0 m 1.13156,2.369938 c 0.56414,0.486769 0.93621,0.620266 0.83103,0.298159 -0.10517,-0.322107 -0.63748,-0.982671 -1.22677,-1.457639 -0.58928,-0.474969 -0.96824,-0.605229 -0.84642,-0.290922 0.1218,0.314288 0.67801,0.963632 1.24216,1.450402 0,0 0,0 0,0 m 0.9854,2.434502 c 0.54052,0.496439 0.90611,0.632587 0.81655,0.304082 -0.0895,-0.328505 -0.60035,-0.99725 -1.14087,-1.493689 -0.54052,-0.496438 -0.92555,-0.624629 -0.82036,-0.302514 0.10516,0.322098 0.60414,0.995682 1.14468,1.492121 0,0 0,0 0,0 m 0.85259,2.484414 c 0.51802,0.50445 0.86203,0.64753 0.80174,0.30931 -0.0603,-0.33822 -0.55411,-1.013657 -1.07213,-1.518105 -0.51802,-0.504448 -0.87744,-0.642793 -0.80277,-0.308979 0.0746,0.333796 0.55513,1.013331 1.07316,1.517774 0,0 0,0 0,0 m 0.72941,2.52363 c 0.49629,0.51112 0.82358,0.65815 0.77736,0.31624 -0.0462,-0.3419 -0.49939,-1.02991 -0.99568,-1.54104 -0.49629,-0.51112 -0.84974,-0.6513 -0.78946,-0.31306 0.0603,0.33821 0.51148,1.02673 1.00778,1.53786 0,0 0,0 0,0 m 0.60586,2.5562 c 0.454,0.52128 0.79586,0.66424 0.76356,0.31929 -0.0323,-0.34494 -0.44883,-1.04227 -0.92386,-1.55896 -0.47503,-0.51668 -0.82266,-0.65838 -0.77644,-0.31647 0.0462,0.34189 0.48273,1.03486 0.93674,1.55614 0,0 0,0 0,0 m 0.4956,2.57979 c 0.43295,0.52498 0.76905,0.66896 0.75067,0.32156 -0.0184,-0.34739 -0.40124,-1.0516 -0.85524,-1.57288 -0.45399,-0.52127 -0.79585,-0.66423 -0.76355,-0.31928 0.0323,0.34493 0.43516,1.04561 0.86812,1.5706 0,0 0,0 0,0 m 0.38842,2.59803 c 0.4117,0.52786 0.74197,0.67262 0.73765,0.32333 -0.004,-0.3493 -0.35571,-1.05845 -0.78867,-1.58344 -0.43295,-0.52498 -0.76903,-0.66896 -0.75066,-0.32156 0.0183,0.34739 0.38996,1.05382 0.80168,1.58167 0,0 0,0 0,0 m 0.29887,2.61013 c 0.41171,0.52785 0.74197,0.67262 0.73766,0.32332 -0.004,-0.34929 -0.34158,-1.06036 -0.75328,-1.58821 -0.41171,-0.52785 -0.74196,-0.67262 -0.73766,-0.32331 0.004,0.34928 0.34157,1.06034 0.75328,1.5882 0,0 0,0 0,0"
             id="path4295" />
        </g>
        <g
           transform="matrix(-0.10282228,0,0,0.7584464,231.36843,20.481027)"
           id="g4297">
          <path
             inkscape:connector-curvature="0"
             id="path4299"
             d="m 209.87581,126.32793 c 0.14449,-1.65878 0.17095,-7.79521 0.22558,-9.44788 1.67594,-50.699708 21.8446,-32.014928 24.46753,-4.11506"
             style="fill:none;stroke:#808000;stroke-width:0.22803727;stroke-linecap:butt;stroke-linejoin:miter;stroke-miterlimit:4;stroke-opacity:1;stroke-dasharray:none" />
          <path
             id="path4301"
             d="m 210.47204,124.47526 c 0.36232,-0.53122 0.67905,-0.67691 0.7074,-0.32539 0.0284,0.35152 -0.26058,1.06643 -0.63601,1.59715 -0.37543,0.53073 -0.69574,0.67628 -0.71543,0.32508 -0.0197,-0.35118 0.2817,-1.06562 0.64404,-1.59684 0,0 0,0 0,0 m 0.0547,-2.62678 c 0.36232,-0.53122 0.6769,-0.67694 0.70669,-0.32539 0.0298,0.35154 -0.24168,1.06713 -0.604,1.59835 -0.36233,0.53122 -0.67904,0.67691 -0.70741,0.32538 -0.0284,-0.35151 0.24238,-1.06711 0.60472,-1.59834 0,0 0,0 0,0 m 0.0446,-2.62694 c 0.36016,-0.53125 0.67629,-0.67695 0.70608,-0.3254 0.0298,0.35154 -0.23804,1.06719 -0.5982,1.59845 -0.36016,0.53125 -0.67628,0.67695 -0.70608,0.3254 -0.0298,-0.35154 0.23803,-1.06719 0.5982,-1.59845 0,0 0,0 0,0 m 0.0552,-2.62659 c 0.37577,-0.53076 0.69618,-0.67632 0.71565,-0.3251 0.0195,0.35121 -0.25879,1.06653 -0.61895,1.59779 -0.36016,0.53125 -0.67628,0.67695 -0.70608,0.3254 -0.0298,-0.35154 0.2336,-1.06733 0.60938,-1.59809 0,0 0,0 0,0 m 0.1212,-2.62448 c 0.37577,-0.53076 0.69618,-0.67632 0.71565,-0.3251 0.0195,0.35121 -0.2694,1.06619 -0.64517,1.59695 -0.37577,0.53075 -0.69618,0.67631 -0.71565,0.32509 -0.0195,-0.35121 0.26939,-1.06618 0.64517,-1.59694 0,0 0,0 0,0 m 0.15218,-2.6226 c 0.39103,-0.52982 0.71563,-0.67513 0.72499,-0.32453 0.009,0.3506 -0.30972,1.06373 -0.68549,1.59449 -0.37577,0.53076 -0.69618,0.67632 -0.71565,0.3251 -0.0195,-0.35121 0.28512,-1.06523 0.67615,-1.59506 0,0 0,0 0,0 m 0.19665,-2.61988 c 0.39103,-0.52983 0.71563,-0.67514 0.72499,-0.32454 0.009,0.3506 -0.30005,1.06433 -0.69108,1.59416 -0.39102,0.52982 -0.71561,0.67513 -0.72498,0.32452 -0.009,-0.35059 0.30003,-1.06431 0.69107,-1.59414 0,0 0,0 0,0 m 0.26696,-2.61343 c 0.40828,-0.52825 0.73761,-0.67312 0.73556,-0.32357 -0.002,0.34955 -0.33471,1.06114 -0.74298,1.58939 -0.40828,0.52824 -0.7376,0.67311 -0.73556,0.32355 0.002,-0.34954 0.33469,-1.06113 0.74298,-1.58937 0,0 0,0 0,0 m 0.31894,-2.60735 c 0.42795,-0.52574 0.76267,-0.66992 0.7476,-0.32203 -0.015,0.34789 -0.38374,1.0549 -0.79202,1.58314 -0.40828,0.52825 -0.73759,0.67312 -0.73555,0.32356 0.002,-0.34954 0.35201,-1.05893 0.77997,-1.58467 0,0 0,0 0,0 m 0.3874,-2.59829 c 0.45057,-0.52193 0.7915,-0.66507 0.76146,-0.3197 -0.03,0.34538 -0.39626,1.0524 -0.82421,1.57814 -0.42795,0.52574 -0.76266,0.66993 -0.7476,0.32202 0.015,-0.34788 0.35977,-1.05853 0.81035,-1.58046 0,0 0,0 0,0 m 0.49109,-2.580816 c 0.45057,-0.521927 0.81159,-0.660698 0.76417,-0.319105 -0.0474,0.341593 -0.42237,1.047862 -0.87295,1.569789 -0.45057,0.521922 -0.79149,0.665062 -0.76146,0.319684 0.03,-0.345361 0.41965,-1.048441 0.87024,-1.570368 0,0 0,0 0,0 m 0.6076,-2.555488 c 0.47684,-0.516217 0.82497,-0.657789 0.77755,-0.316197 -0.0474,0.341593 -0.47243,1.036981 -0.94927,1.553198 -0.47685,0.516217 -0.82497,0.657789 -0.77755,0.316187 0.0474,-0.341583 0.47242,-1.036971 0.94927,-1.553188 0,0 0,0 0,0 m 0.74961,-2.517036 c 0.50761,-0.507715 0.88661,-0.639447 0.80113,-0.309406 -0.0855,0.330042 -0.53897,1.018318 -1.04658,1.526033 -0.50761,0.507715 -0.86417,0.646956 -0.7964,0.31098 0.0678,-0.335958 0.53423,-1.019892 1.04185,-1.527607 0,0 0,0 0,0 m 0.95077,-2.44744 c 0.5756,-0.481603 0.95082,-0.613683 0.83804,-0.294995 -0.11275,0.318688 -0.65026,0.976485 -1.20437,1.467537 -0.55411,0.491053 -0.89851,0.635451 -0.81303,0.3054 0.0855,-0.330032 0.60375,-0.996338 1.17936,-1.477942 0,0 0,0 0,0 m 1.24413,-2.31055 c 0.65158,-0.438212 1.04763,-0.558391 0.88458,-0.268417 -0.16303,0.289975 -0.80201,0.894902 -1.40098,1.364904 -0.59896,0.470002 -0.98057,0.5989 -0.85235,0.28788 0.12821,-0.311002 0.71715,-0.946156 1.36875,-1.384367 0,0 0,0 0,0 m 1.69187,-1.997907 c 0.74319,-0.358503 1.19648,-0.418185 0.95179,-0.20625 -0.24467,0.211936 -1.0314,0.69792 -1.71215,1.114618 -0.68075,0.416697 -1.08479,0.530976 -0.90244,0.25523 0.18232,-0.27573 0.9196,-0.805095 1.6628,-1.163598 0,0 0,0 0,0 m 2.29985,-1.203383 c 0.87196,-0.104144 1.3345,-0.08873 1.01981,-0.06206 -0.31467,0.02667 -1.25023,0.268982 -2.08318,0.49257 -0.83295,0.223589 -1.24493,0.348417 -0.98008,0.166251 0.26483,-0.182155 1.17148,-0.492613 2.04345,-0.596757 0,0 0,0 0,0 m 2.57881,0.221388 c 0.84762,0.189038 1.29744,0.240882 1.00466,0.115791 -0.29275,-0.125091 -1.23329,-0.330649 -2.10904,-0.413972 -0.87575,-0.08332 -1.34091,-0.02997 -1.02552,-0.01477 0.31536,0.0152 1.28227,0.12391 2.1299,0.312948 0,0 0,0 0,0 m 2.24543,1.337091 c 0.76549,0.332622 1.17469,0.445072 0.94995,0.20891 -0.22472,-0.236161 -1.04563,-0.679316 -1.85356,-0.950673 -0.80793,-0.271357 -1.24685,-0.345776 -0.98034,-0.166208 0.26647,0.179558 1.11844,0.57535 1.88395,0.907971 0,0 0,0 0,0 m 1.84187,1.866263 c 0.67884,0.418151 1.08237,0.532829 0.90128,0.256129 -0.18107,-0.276701 -0.89467,-0.827266 -1.61953,-1.205002 -0.72485,-0.377736 -1.14099,-0.48133 -0.92946,-0.231366 0.21151,0.24995 0.96885,0.762088 1.64771,1.180239 0,0 0,0 0,0 m 1.54233,2.123867 c 0.6461,0.441904 1.04064,0.563096 0.88123,0.270678 -0.1594,-0.292418 -0.78066,-0.910735 -1.45951,-1.328886 -0.67884,-0.418152 -1.08236,-0.53283 -0.90127,-0.256122 0.18106,0.276693 0.83345,0.872427 1.47955,1.31433 0,0 0,0 0,0 m 1.32242,2.268066 c 0.58929,0.474969 0.96826,0.605229 0.84643,0.290931 -0.12181,-0.314298 -0.7209,-0.941948 -1.33733,-1.402297 -0.61642,-0.460349 -1.00282,-0.586599 -0.86304,-0.281967 0.13976,0.304614 0.76465,0.918364 1.35394,1.393333 0,0 0,0 0,0 m 1.13156,2.369938 c 0.56414,0.486769 0.93621,0.620266 0.83103,0.298159 -0.10517,-0.322107 -0.63748,-0.982671 -1.22677,-1.457639 -0.58928,-0.474969 -0.96824,-0.605229 -0.84642,-0.290922 0.1218,0.314288 0.67801,0.963632 1.24216,1.450402 0,0 0,0 0,0 m 0.9854,2.434502 c 0.54052,0.496439 0.90611,0.632587 0.81655,0.304082 -0.0895,-0.328505 -0.60035,-0.99725 -1.14087,-1.493689 -0.54052,-0.496438 -0.92555,-0.624629 -0.82036,-0.302514 0.10516,0.322098 0.60414,0.995682 1.14468,1.492121 0,0 0,0 0,0 m 0.85259,2.484414 c 0.51802,0.50445 0.86203,0.64753 0.80174,0.30931 -0.0603,-0.33822 -0.55411,-1.013657 -1.07213,-1.518105 -0.51802,-0.504448 -0.87744,-0.642793 -0.80277,-0.308979 0.0746,0.333796 0.55513,1.013331 1.07316,1.517774 0,0 0,0 0,0 m 0.72941,2.52363 c 0.49629,0.51112 0.82358,0.65815 0.77736,0.31624 -0.0462,-0.3419 -0.49939,-1.02991 -0.99568,-1.54104 -0.49629,-0.51112 -0.84974,-0.6513 -0.78946,-0.31306 0.0603,0.33821 0.51148,1.02673 1.00778,1.53786 0,0 0,0 0,0 m 0.60586,2.5562 c 0.454,0.52128 0.79586,0.66424 0.76356,0.31929 -0.0323,-0.34494 -0.44883,-1.04227 -0.92386,-1.55896 -0.47503,-0.51668 -0.82266,-0.65838 -0.77644,-0.31647 0.0462,0.34189 0.48273,1.03486 0.93674,1.55614 0,0 0,0 0,0 m 0.4956,2.57979 c 0.43295,0.52498 0.76905,0.66896 0.75067,0.32156 -0.0184,-0.34739 -0.40124,-1.0516 -0.85524,-1.57288 -0.45399,-0.52127 -0.79585,-0.66423 -0.76355,-0.31928 0.0323,0.34493 0.43516,1.04561 0.86812,1.5706 0,0 0,0 0,0 m 0.38842,2.59803 c 0.4117,0.52786 0.74197,0.67262 0.73765,0.32333 -0.004,-0.3493 -0.35571,-1.05845 -0.78867,-1.58344 -0.43295,-0.52498 -0.76903,-0.66896 -0.75066,-0.32156 0.0183,0.34739 0.38996,1.05382 0.80168,1.58167 0,0 0,0 0,0 m 0.29887,2.61013 c 0.41171,0.52785 0.74197,0.67262 0.73766,0.32332 -0.004,-0.34929 -0.34158,-1.06036 -0.75328,-1.58821 -0.41171,-0.52785 -0.74196,-0.67262 -0.73766,-0.32331 0.004,0.34928 0.34157,1.06034 0.75328,1.5882 0,0 0,0 0,0"
             style="fill:#89a02c;fill-opacity:1;stroke:none"
             inkscape:connector-curvature="0" />
        </g>
      </g>
    </g>
  </g>
</svg>
